<mxfile host="app.diagrams.net" modified="2023-02-13T14:08:35.615Z" agent="5.0 (Windows NT 10.0; Win64; x64) AppleWebKit/537.36 (KHTML, like Gecko) Chrome/109.0.0.0 Safari/537.36" etag="_flQ1om2uLKkSCYvkhOo" version="20.8.18" type="github" pages="4">
  <diagram id="wra212LjeUH3pj_TiBZq" name="PÃ¡gina-1">
    <mxGraphModel dx="1354" dy="718" grid="1" gridSize="10" guides="1" tooltips="1" connect="1" arrows="1" fold="1" page="1" pageScale="1" pageWidth="827" pageHeight="1169" math="0" shadow="0">
      <root>
        <mxCell id="0" />
        <mxCell id="1" parent="0" />
        <mxCell id="3sGvOlAY_ciUMnHrA1yT-1" value="" style="shape=image;verticalLabelPosition=bottom;labelBackgroundColor=default;verticalAlign=top;aspect=fixed;imageAspect=0;image=data:image/png,iVBORw0KGgoAAAANSUhEUgAAAvoAAAEjCAYAAABDxqWvAAAAAXNSR0IArs4c6QAAAARnQU1BAACxjwv8YQUAAAAJcEhZcwAADsMAAA7DAcdvqGQAAHBxSURBVHhe7d0HtGxFmfbx7cgoSJAskrNEQbLkjOQcJAgoCEgyMuqMg7rUEdFRCZJFBMmSJeccJWeQKDnpICIzzHz+ylt82/bcxD33nO4+z3+tWp12795du8JTb7311nv+7680IYQQQgghhL7in0Y9hhBCCCGEEPqICP0QQgghhBD6kAj9EEIIIYQQ+pAI/RBCCCGEEPqQCP0QQgghhBD6kAj9EEIIIYQQ+pAI/RBCCCGEEPqQCP0QQgghhBD6kAj9EEIIIYQQ+pAI/RBCCCGEEPqQCP0QQgghhBD6kAj9EEIIIYQQ+pAI/RBCCCGEEPqQCP0QQgghhBD6kAj9EEIIIYQQ+pAI/RBCCCGEEPqQCP0QQgghhBD6kAj9EEIIIYQQ+pAI/RBCCCGEEPqQCP0QQgghhBD6kAj9EEIIIYQQ+pAI/RBCCCGEEPqQCP0QQgghhBD6kAj9EEIIIYQQ+pAI/RBCCCGEEPqQCP0QQgghhBD6kAj9EEIIIYQQ+pAI/RBCCCGEEPqQCP0QQgghhBD6kAj9EEIIIYQQ+pD3/N9fGfU8hBBCn9DZtL/nPe8Z9SyEEMJIIRb9EELoQ/7nf/6nef3115u33nqr+d///d9R74YQQhhJ9KxFf6DLzuREGBdYNmPdDP2Etk9Srgn8xx9/vLntttuaW2+9tXn77beblVdeuVlmmWWamWee+Z3jUgdCv2FAq3z/0z/9U8p3CKPoWaH/xz/+sXn++eebZ599tnnf+95XKnWP/pUwhEw66aTNLLPM0kw//fTpCEJPU9s7j3/5y1+a1157rbSHrPgvvvhi8/vf/7557rnnmjfffLOZe+65m7nmmquU+8knn7z58Ic/3Ew55ZTNP//zP5dzIPUh9Dp/+tOfmhdeeKGU/fe+970lhTA6tJ0MIx/84AebD33oQ32rC3pW6P/ud79rbrrppmKxYqWqHVY6qzAmVGrWzSWWWCJlJfQ0mu7//u//bl555ZUi6J9++unmySefbN54441muummaz7ykY80iy66aDnmrrvuah555JEyCJhqqqlKmznbbLMVwT/11FOXupD6EHodA93f/va3zTXXXNNMO+20zWSTTTbqkxD+EbOdr776ajPjjDM2Sy+9dEkR+l3E3Xff3dx5553F/3TdddctnVc6qzA2jjrqqGbxxRdvVlpppZSV0NNougn8008/vbn++utLG7j33ns3s846a/OBD3yguC9Uiyaxr1P7wx/+0Nxxxx3NQQcdVAT+Jpts0my++eZxdQh9wRNPPFHKN8v+CiusUATcQKSsB9CPyssDDzzQzDPPPM3qq6/el2WjJ4W+S77nnnuK0NeB6axMvYQwNg4//PBmkUUWaVZcccUibkLoJcxIsVrqmB577LHS/hH1pp3nnHPOZvbZZy/uaVW4105LmykR+//1X/9VBNFTTz1VXHy49rB8zj///KWzI47i8hC6mSpbOkWZGS3CzazWqquuGqEfxgihzyvk3nvvLe6Na6yxRoT+cNO+VDemWvQ322yzCP0wThx22GHNwgsvPKDQ59bAvUHFtwakXd6Gs/LX6+COwRVjySWXLK9D/1Oj5RDo/I6vu+66Is5Z77neTDLJJM0MM8zQzDTTTM0000xTymktqwOV2VqWPFY//pdeeqm0o1x/DBzmmGOOMuPFh5/g78eOL/w97bau/bybqNfVLuNtvGfwWi36q622WhkAhzA6qtBnOI7Q7xLqpXok9PmdRuiH8YHQZ9E3rdsp9LlBXHrppUVMsXISUbXSD2flV95dj0frC3bZZZfyfj82SOH/t3PaNgtsJcKFKL/55ptL8AERdIhxa5NGJ8YHeq+eG55LBhEGtpdddllz//33lxmB5ZdfvpliiilKu8rFx2Pbyp+y11+0y5wBnzI3kH97Pa5djoYK5VSbPd9885U6gHY59DxCP4wPEfpdSLuRqULfVHZcd8K4Miah/8wzzzQXXXRR6RxqhJJa6Yez8rPqurZf//rXZYHZvvvuW97vxwYp/M09589//nNx0XnooYdK4AHCS3lcdtllm3nnnbdY2x1XRX5N40q7La14zrpP7BtQcH9QF7j0EFdmlN7//vf/g1tQ6H1qObAw8dRTTy1r4LSBnQxUboYK4p3Y/+IXv1j6+84y6HmEfhgfIvS7kHYjE6Ef3g3jIvS5LohYwr+zVvrhrPyEPivbiSeeWKys++yzT3m/Hxuk0JTwgBbY/uY3vymuWuuvv36zwAILlPLKH78znLDnNY0r7ba04rmypvMz0PAogsnVV19d6sY222xTZhII/ir2Q39Qy4Gyd8kll5R7r1/tpF1ehpoHH3ywueqqq5rPfe5zpR3sLPOeR+iH8WGkCP2sRgyhhUpOxLCUtpP3Bkqdx03M5Pdcn862ptDbVGFtgyuuMyeddFJz/vnnF8v5jjvuWCLiLLjggmUmhwtNtahDWXi3nVL9Xvv7nitnXHf8Ft9/60EIvvXWW6/49Bt8nHbaaUX8c3Xj0+8/pCz2NrUsuY/KF7cdZaAzWQcyHIkhzzUpn/VaQwjjRoR+CAOQziRMDNqDNJtciX5z7rnnNhdccEHxwedzbybJPg9rr712eSTy68CylslaPttpfBnoHDX5LaLKIl9iX9g5LjzEv/dd9xlnnFHWtLD2G6yYXQ29z0BlYbhTxfXUx/o8hDBmIvRDGA21MxlTGm5iSe0N3KdqvX/55ZeLi4EIT9wPr7zyyhIq047Na665ZtkXxF4PdQEsoTNQ2WunCWGg89UErkIGHx//+MfLtQlbaL2AqGfXXnttmfZ+9NFHS2hDcfoJ/jqYCb1Luwx0C914TSF0Oz0l9FPJw0hFuY9w6j2q4JWIfItd7dp53HHHNb/61a/K2ouddtqp2X///YvVvL3IsBvaunoN9XoMOlj1P/GJTzQ//OEPy6wD32nrR6wruO2220qcfosm2/89hAlhdPWhvt/+bHTHhjBSiUU/hBAmIiz5LPYnn3xy8+///u/Nww8/XET9rrvuWnzwLfzme99r8Jn+2Mc+1my11VbNpz/96bJQ9+KLL27222+/ErmFS09EfgghDC8R+iH0GLFYdTfErag13HOuuOKK4oN/yy23lHsm9r29EETRsYutqCCTTz55cdHpFmr5qmWs/br9nmsW5pMfv/9i0TDXIyFArT+wH8V5553X3HDDDSWai4W7IQwG7bLYyejeD2GkEqEfQggTCHHPck/Mst7zXSfyiX2uLMJiCpUpgs3SSy/9zgLbXqUKrZqIfi49Zir8R6LfhnN89rn2sPRff/3171j5awohhDBxidAPIYTxpC1WifvXX3+9hJ8kZIn8s846q7nxxhvLng2bbrpps9FGGxU3Fz74Y1tc24u4bv9Lqht7EfwbbLBBCcsoqhAffnH55ZMFyTbkysLdEEKYuETohxDCBEDcX3755c0RRxzR/PKXvyyW/e2337751re+1Sy88MLFmj8SIfoNbETqOfDAA8t6BDMchxxySPPzn/+8uPQQ/RbuhhBCmDhE6IcQwnjA+swH3SZXhx56aBH44sqLQMOKbUdOris2+uncxXakUGcniH0bcAnPudhiizXrrLNOs9lmm5XY/NYtHHzwwWWTMC4+ZkZi2Q8hhMElQj+EEMYCAUqIihV/8803l9j33FBY7+eaa64iYrnpWGQ766yzNlNNNVXxW2+74lTx235vpMBf38BnzjnnLLMc1ivIM3nF7amuaZCnNg6rLj0hhBAmjAj9EEIYAEJTYr1/9tlnm5tuuqkkG0QR/OLir7LKKs2WW25ZIumInkPQjs4HP/zNnafu/sulR94R/KLy/O53v2vuuOOOkse333578eOXx/U+hBBCGH8i9EMIYRRVVNZdbIXJJPIvvfTS5hvf+EaxPM8777wlbvw222xTRKrFphH24488EqnHjrs777xzs9122zXTTTddyesf/OAHza233lrEvoGW2RT3JII/hBDGjwj9EEJoQVTasfb8889vjj766OaMM84oItPi2n333bdEz2GZDoOLDbhWXXXV5vOf/3yz++67lwEW//2jjjqqhOd85ZVXiktPCCGEcSe9VQhhxEPIsxzbtfbEE09sDj/88ObVV19tFlpooeKes/zyyzeLL7548SnnolMt9rEwTzh1BsSaBlF6+PEbTC233HLFJcoMCr/9H//4x2XzMfsUmG0JIYQwdiL0QwgjguqWU8U5cf/mm28W6z3fcIts77333uIuQszPN998JTqM5LldYPngxy1n4lAFPx9+C3ctbJb3SyyxRDPPPPOUvGflv/vuu0vEHvfs+eefj+gPIYQxEKEfQhgxVKHPei+G+wMPPFAWf/K9J/TtYis8JveRFVZYofjft6liNEw8ah7XZOGuWZUvfvGLZU0EFx737JprrimPZmG81/bjr4O5EEIY6UTohxBGFMQgV5Bf//rXzbe//e3muuuuK645n/nMZ5qtttqqhH4U+z10D6z5QpZauGvRrsW73HtsUPad73ynOeecc5qXXnopYTlDCKGDCP0QQl9D2IueI3zj2WefXRZ3XnbZZc20007b7LbbbiXNP//8zRRTTFE2uKrx76VK28LcmcLEpZ3X7g3XHm5U9i0QCWmHHXYo77fvrd2Kq4W/plj6QwgjkQj9EELfQdC9/fbbxUWHe45FnNIf//jHZo455ij+3xbXLrPMMu/437cFvoT6GLoLFn4Ldz/60Y82yy67bLHuG6zNMsssZUB32mmnNb/5zW+ap556qlj5q9APIYSRRoR+CKGvsMD2ueeea+6///6ycNMCW37cf/rTn4qor1F0PCcWK22BH7qfer/E3hcdaaWVVir39sMf/nBZUO3+u/c2OHvkkUeKa4+BXyz7IYSRRIR+CKGnqcKN5dZi2scff7y54YYbSvz78847rwj/9ddfv9l7771LyEbx2sck6utno/s8dB/uFSu/xdMbbrhhWbgrJv8TTzzRnHXWWWVPBBtwWZvxxhtvxJUnhDBiiNAPIfQ0xBoffCLusMMOa77//e83d955Z7PRRhs1e+yxR3n8yEc+0nzgAx8Y9Y3Q71i4yzXL7sV77rlnCdF59dVXl7LBree1114rPvwR+iGEfidCP4TQUxBndYEllwy7pp5++ulFyM0888zNpptu2my88cYl9vr0009fRN/73//+7Gbbx7RnYSTrLURO4ppVXXs22WSTZp111inlgIX/1FNPba688srmySefLLNB1nQoUyGE0E+k5wsh9AQEPjHG197uqFxzrrrqqrKJEmv9DDPM0Cy11FLFZYM1VxQdoq5TBA6UQv+iDBjw2XxL2bCAl/gXYYlrz6WXXtpccMEFZeM0bl4R+yGEfiJCP4TQ1RBedj+1wJL11cJarjkXXnhhcdeZa665mk984hPNmmuuWVx0WHHbAh9tUT+6NBQYrPgvdnT1X2oSDlJEIO4kYXBwT5WDmoTlJPgNAtdbb71m7bXXbj70oQ81jz76aAnJaeGu5wT/q6+++ncbcIUQQq8SoR9C6GpY8Yl8ltdjjz32HR9rCy6/9KUvlUgrk08+eVmMOVSC/d1S/8uZZ57Z/OxnPyvJuoKTTjqpueOOO4rYD0ODASFXni9/+cvNtttuW0T+CSecUDbhslPyH/7wh+LSE0IIvUyEfgihq6guOtwohEa0CdJXvvKVIpBZ7XfZZZcSRWfOOefsuR1sWYlFBbr88svLrAQx+cILL5Rdeu3wevLJJxfXpFiShwaWfnsoLLjggs0WW2zRfPazny2RmVj3v/CFL5T7Yh2Ixd7uR00hhNArROiHEIYd4om4rf731W+a4OJ/v/rqq5eNkRZeeOFm9tlnL/74wmQOtIttN+N/GsAQjlyOhIIkMLfffvuyYNjAhmW5Cn2PjuXqw03p9ddfL4Ogeq6aZ95nffZoD4EaVcbnNTned53PMdY2OM577d9yDq9r8j53I+4sPne8cxukcDlyLmFN29+Rup1abswEWc8x00wzlcGjHXftsyAuvzwVltPiXQt35Vn8+EMIvcR7v/lXRj3vGXQiL774Yun8NLh2uew1y14YHnTaM844YxGLneKQWCGyxOImJHX+3YDy7truuuuusoCQ4G3TKyJ3IKooJCDtYmqDq/vuu6955ZVXiqCcZpppirV1xRVXbGabbbbiolMFGnrtvxPIBPvtt99eFoVuvvnmpf3yH/13/5vYnHvuuct/479/8803l4hCPlc+bfrECm1gQORff/31ZUDkucXJt912W/PQQw+VMqMcV5cmApX/uUGUc9bzEfDy2aBJ3itnfNn5tLN4uzcWrdppVv6LQ2+34Wuuuab8lsEJwe9++T2071EvUK9X8h9Fb7Khmjzxfw1q6hoR+SpfDDQ91u/3AwZ5Zpz8HwOebkEbYebLrscW3Cv7A8H1jS4wMFWPuqUND92JNkvbpWxpA2u7229E6IcRRa8LfeJrmWWW+btr78WGyX8iequIYhW2ydUVV1xRdjBda621ilWVBd/98r/9z87Ua1Shf9NNNxULMjElL4j0G2+8sXxuAMDaT3SxJB933HFl4TFhbtGowYBBDzGqHfzRj35UIhAR7PzLnZtrEMEmfrzyDGL9oosuan74wx8WgX7LLbeUQYK1AcJP8lk/99xzS9hJHZ6FqvJdO2tw8NWvfrVZdNFFy/0h+k888cTmt7/9bblvzuf3P/7xj5eBRZ1p6UVcdw3PaZddC7znmGOOYt23tkI+wmCrzoYQ/L1aJtt0q9DXzyuHZvsi9MNgMVKEflx3QghDjo6YdZSQPfjgg4uAMlux0047NV//+teLyOjnTpp1nXWSVZyLkjxghTcAFRUGZ599dhHihCZRba8AeUN8+4z4qQKTyCZyDjzwwLKmQcx4711yySVFvBE//M0tZt5yyy3LMRae7rXXXkWYOz9rP2HLUu01tx7oBF2bz4gnAwCDzUMOOaTct8MPP7wMKAxUDEbNAPQT8tcgyH+24Zb88x/l0aGHHlpcegxUCf4QQug2IvRDCEMC6wnLNTH485//vPnFL35RrPkbbLBBEaYrr7xyEbUsK3WDq7Z1pZ8sLcS3yC5EMsF81llnFWs5n32i0kCIVV7+mLFkwedOI49mmWWWIsohTyTW/dVWW62I0Y997GPlkSh3HEs0S6hFpUT91ltvXX6LFV9ceaFJud8YGBDzZlBY6fmjm3Exa0DI2oRs1llnLbMsvmcwZlZi/vnnL48GL6z9fo/oNRDx2EsCuOZnpb5WFln43QP/X17bcXmNNdZoHnzwwebII49sjj/++GIN51rlv4cQQjcQoR9CmChUkUcsEpqs11xP+Hd7nxDlprLYYosVMUtEcodou0G0Uz9h9oJ7DlcXGzl5TSgT+JBnZjyIba4ifO/lHTcbgwS7/bZFtNkPswHTTjtt+YxY99zAyjH8y33PIIowdzxfdAMI94CYJ1ANIlwXYW/GwfvEO9exddddt5yXiOV+ZLbAjIz76hr9juuv19TLdJa7+pxLj4GYvLauQt4ZNBlouX/uj/vEfcqaE3la71M/5EsIofeI0A+hA0JGYoHullSto72A63TNhA+xw4+bWwcfc4KfVVlEE9Fmll566WK9r4JqpECMswrbC0CygRNrsHwiDglmlnFCndsN0S2xyhOaQkDK52o5NjhqD5AIUsnnXjuXe1IX2Nb8di+46jiX97jl1E3HbExmUEbss2YbkLlX7qcZCIMPi3ddk4EEOq+jpl5mdP9F/howsepz51GWlXn5QfAT+0KoGjRVK3/EfghhqInQD/+Azmgkd0hEFosqkdUNybVIVdR1871xjRaUsh5b5MSX/KCDDipRZkTO2WOPPYqbDrcPYpcoHIkQjIQikc2Kvuuuu5Ywonzh+dp7n5Xf4jCuTTYGk/bbb7/mX/7lX5rtttuuiPROEdqZ5K/fIdSVG+45yhTR77XnfPAt2DUIYOVn0bcQ2owCMW9WwYyL67MQ2IJdbkcs/Bbouh6uPG3q7/cr7byVpptuurJOYauttmp23333ct/47v/4xz8uLljyWB1WN6rgr/W4Pq+vh5t6La6zm1K35VMIvcJ7/lppeq7WqPTCyfH1ZakiHFigwuBQi0Q/dtR2ISUyV1hhhX8QmTpjAub+++8vn3VLJCf3g0jgr81VwC6e7WvvpvtEqLJicuUgRLnjELJcG7h9tK337abHe/1Y3jpxH1l6LeJUBj/3uc8VgU0A/sd//EexoNszgJD/7ne/WyzmLOkGSFxxtHfENguxSDBE+L/+678WqzvBbTAl37mPiIzD5cZGXKzKFuASnf/2b/9WfsPvcrsRqYfA33fffctvGQwIv+kazSYQ+drYzTbbrPye69L2Evms2e75EUccURYOuxYRk1zrSESZlgx0tSfWSHBz8tz7BlEGBFx/oMx31oPhRDmxOFw5tQahW5BHypky9vnPf74YCQbCDKKyKf8NPs1QhTA6GPVE4rNGyeBce9aP/VCE/iDhmtApHtvI6mqZqMd1i8BxXVK9ls7r6oZrHAzGJPRNuxM2krwY070calhgQSwTC91yb6p7CQEo1jsXDp2ra+Rvb/EiaydrMMtnm86mp1/K2JggoIS1tAiXf76dWA1+5IWwluedd145rkbhOeecc4rLk/uujTMgcLwFoQYDyuo3vvGNIvTtHqxcE/rClArJSejvv//+ZXZAaE2/QQRZHyG/+d97bbdhgwRhZXV+BB+XIr/tnGYT1BvXb8Dguvj7c/MRgca1ujbWbIMIn42E+zkm1A35L49FMCL2CVHP5b8F0xYxtwe/nY9txtZVjy6/x+d7rvGUU04prkd1MNItaJ9dq1ktdWGg/9tLQr/el/ro/3T+J59VbVE/H+h/h3dHhH4Xo+B3i9DX+OjkNOg6N5bLei21wNQs1ilzZ9Ahim4h1en3seEcNQ22NZd1UMfOt5QF1n9g4Wufu/N36rWg87PBuKbBpl4vN5J55523bDrVTUK+15CXXEyUZ0KGFVj0kRp6UYhI4r7SjWViOFDX+NoT3RbFsn5rA+SnNo27hzwlZrjvXHfddSWGfV3bAO2G8isKjntw0kknldmeTTfdtJzTgMpMALFGmFsLwTXHGgAzVqz62i2/6X0Wey4nBmSs/NpX4v3oo48ufvoWm4rUo11TZ1j7zRjoHLUTBnOujZXV2gsDgs72Y6QijysGY/osew7I33nmmafkudkPAzl5Jn+HOt/8Xr1OAlmZc2+7CddosKp94cqmbtR8auexulMX+3e70FfPtAf2bjF7zDjSNobQNgaFZkjNiqr3jCf1fw91OelHIvS7mG4S+iwgP/3pT4s/K+vWmmuuWYQOFBjJ9cpmvq2mygl9YfL4uBJD41KwWHQ1wn5P56xT1fANRqHUmJgSZe1bZ511yrUR+xjd+VlxiTv/SyNUqccPxnUNJu6BssKNwYCMGInQf/fITyJQI0noKy/KjQWmrJSddFt5GC7km85F3SFW6mZWIL4JduJcfhLPyiwxz0jgc99RfqUqyuW/R6KxWocd6zy+T0jWwQRhQXBy/1H+nYcYIjA675HjnEcb5dz1c+dh2CCq/BezAK7FbxGrdfYm9/xvtLtY+cWVx8yNgZhyQOTbBIqRZTjyze/Va2zf427DNUltMYz2taoLyqU+SVvUzUJfn66OcZ1Th7bffvtSjyrqrzb2P//zP5u11167DKKVkXqPJrSctPOtXQYqne9N6O91IxH6XYxOrVuEPuscixlfTA02K9u3vvWtdywzkusl7nfYYYfi3lCP+/KXv1wE+7gULBYg1jiDCmJclA4FczAKpQGEwm463uBDHG4dO0Z3fu4HBgb+m016KvX4wbiuwcR1qtRcJQxs3INuu8ZeQn7yw2dpVtYNnEQd2WabbYplqpPk9d+Qb9DsypP2YNN79XOf1Tzzfk2Vdn7W9+t32t9D+1iM6VwV743tmHqtbepxHgf6zkiknY8GWsSbfSTMuqg/0JYTp0Rs+/iBGChfx/SdMd2Hep98X+p83S3U/1Cvqf26fZ0MUNA/mi3rZqFPu3A1smaGm9S3v/3tvxP6+nyfm1njDicMb3vAXR/fLe18q/e8Ted7E/p73UiEfhejg+kmoe/3jcgJZhX2gAMOKBa5al0jLG1AIwIDyz+Lp6gWFs/VRUUGAo7jQuM/sbSZqqvnYNEz3W9zHZYKYp+frv/Nsg+NHEsdKxEB4fs+13i4zVINg+e8GhG/bzqQJVEHZBrfVDzLoU7J8c7pHK6JBdLvcDE47bTTyjntFsli6LP6PZYVScelcfKf6+BnqKn/XXJvdKgGM1Vk9WPFntiog8oBdxCJZUr+KtcWG7I8tTut5PHfkEdtOvOl/flAeVbL8ZjwvXHN79Gda3zu12Cco5+p+UNUqCuMJGZQtbvaaIuqtUltd5QxMdAxYysTGN25vd/+fufrXkL/qU/Wr3W7604V+l/72tdKGTDb3G4zaQL9spkf7qb+Sw0Q4TP/1ef6XnqjPZOmfdZv0w1mDvTNdTZAMlNHr9AB+kH9PP2hTDpXp7eAQQdvArOLvmP/DY9+T7n2vnVarkve6+/b3grtc3UTEfpdTDcKfdNqKpXptj333LMsbFPgXSvLJ4GuYhLhKjMLaBX63leZ+c6qfP6T94luln+xmm1OY8t6HYTBxHzzzVdElcZMI6AD4RZk8ZxzVKFvwR9XIlPqGgUb3Jg6VglZlHzXtcJvKOg2glEsFH7Hq7xeqwimmFVokRlcC+ysSczznVTxvc9fW2Pi/xsEsUZwaxrXzmwwaRdxi3ENkPznCP13jzx1b3UOOgBlX9n2HMqeCC7Khc5JZxT+UZC9m7LXeY6BSJkeXuo9IrK0gwQdX2vGD22vNpFLFUHEsKKNd8+G4771UlkZW/2p+UyYciXsZaGv3PAU0O/rl62VUU64zel/9fVVTxDn+l99NA3iMwvy9fnyjJHOuh56gFaiW+zZ4blroFG05c7vPNpu5ZMQNgjgamYtIkGvPacRXBNdQUf4LddFKzhHjdTl/Nr+bi1jI0Xov/ebf2XU855BwWVBJC6IDYVquEIhqmgnn3xyEcAqE2s2oc2qqcB7rVIdd9xxpZIZKauIBBCx6fotbhNv3EY0CplGSsWzqMhxKpzKZJEUke0YSWehgdBx8P83UPA9+eMafL/+loag+gMS9CqvRsD1+Mx5jz322BINwkCCn6MZBHG0jdxVYr/JMsBSYJBldsL/U9nhPjiv6zCYqPdJA2GK2v93rMHAUFLzS2JN0/j7j17Xz8P4Ic8MlKpoYeGR1Aedk3Lgc2WM5Z/g0SGN6d6PhPvgP7bTu6HzHAOlMDxUIaoN1/apC9pJ7Z823OdElFlZbZC2WfuKge5jO42Ngb4jjY1xOaZb6bx27Q3DGcGpL9MHdyv6fsLZwnb9Kvecdvuob2XA++EPf1hEKJdI5cdARj+uXBGq+njlTP/rPBb3ipxEvPoNZdHnjG8Me3SKY84444zynpl8A1D9ur6adpB3BqHEv+ujL/Tp1XqvnbfwX7tOC9Amnvst1+ycBiaup3ocdGM5c820DgOVfJHPvVwfRkeE/gRShb5rYClWqC+++OLi667gqCgqHNH8mc98pjRAxLgG3iyACqYSqbziAwtzJ34x8VTFPWs4q7z3iHfnFsZuww03fKfS/uQnPymiX7xtfugW72goxIRXiHUsKqiRud/0WmQPofNUaJXTb/kdswVmTIz4V1lllWavvfYqMwsGM8Sc63Etzmc60G9zJWLFNXrXgVlYJO62YzUcxL/dPH1vuO4VjN7550foDy7ykJDXkSy00EKlfBvgihkvmpMOwCDPvXdsFUSV3IvQyyjPEuFAeBFhDDjaVOKJsYa10KymOtK2cnqsaUy0jxsojY6Bjm2nXmJs107o0wWs5b0u9GkFfbc+2/on/TIxfvzxxxfDmzV/vAfoAX2/vtksgH7bd3gMfPrTny5agEvOiSeeWIxcDHuML9yJeRKI1kWbOI5xhh7hceD36AL7Zgg0svPOOxd9ohw7j/zVpuvTvWd9lrURZu3NKCjzrqtGChrofg03I0XoJ+zIIEIwG3UTNXWaVkVhqTdtRmDW0W1Fh2AwoJKaajSNq8ARS0Q4S7ukQKpUvu/RMSqQCmuBL3xH8rnzOB8XIGJf5+McKiH/dAuIVULi3PGVWshZaiEWN6Gm0TENR8ARa77jXJL3NKie+x9mM3zf6J/4q+fXCHsv9CfKjo5COTHwNTg0SORiZtBqatq6DgMA5bFT7IfQq2hbtcXaSvsMWI/FJcKCUHWAABJOU1vYj0IiDA00hfVx+lhtLB2grzdbrj83AGAErS5h2llJf6xdZsH3OZRFA086QdmkT1jhDZKcp7plMi4Kl0zs+z3n1qYz8tEPvmvw4Hv6d7/lOEZQuiEMPxH6gwTRooCrBJLY10a1BI5HbjoKf7uR9x0jeiN7nxHlLD1G9US8iqrzMHDQkRBRVUw5RlK5DAS8V8W3586jYhPlKh+runP4juN8RoRLjodz1+szLWeEb9R+6qmnlmg/3ItMi6J9LfWa/Q8DG8ex8nNX8tygxzWo9NXyFfqLWnYkZUG5U55Ze3QerE7rr79+Gaiy8p911lnFhYwYUoZruWinELoZ7Z12jXhiQTWINWNI9Jht1X4SY9pxdaEufKxtbAjjg/LGYs8tkrWcRtDW6n/16coXUU/IS/zmlUvr7GgQgrxuZAhl0XNGOt+lBap+8FvOxTinLa6GPL+nDffa8QYD2nP6QCQp3g3WChqQVJGf8j78ROgPIgq+KS2jX+46Khprvgrjvc5pRBVIpYKK1e4EiHKdiNcqcvuzThHkte/7jsd6nOeogt77A53H686ks+JaxCqrgSDITDEK8VkrsO9LjodBi45Ow6JB0viYkjQA8rud1x36m1qWzPjwSzY1bUrYQFh55DdqxohblwGiwSjRH0I3o4wSQFxytHVmVAkb7RwLJ3dFQRKUdQaV2j6GMKHUNrUaRzxv98OSvlbS7rLSS9zFuOhwxdX+Vur327TPWV/TEu3j6ues/Yya3KXoG79pUFs9F+o1SWH4iNAfJFQso10WTC43rPCEMbcZ/uBcWoyaa4GvlYYQ9j1TZKzlBLJkRE5cqziOYSGtFdjAwfkNBHxXaDYVX2djtO99MwGElOeuyTmIq7FRr8ujimvqebfdditWWYtxCP06AFH5rQNwLfWa+fZbM8Bnn3sQq5YpP4OVMHJoN/CS+68MEj+mi5ULU806ClPRfEUt4OLKZsp3ICt/CMOBsqet0+5p4wxKldvbb7+9DFKJHOuzrK3iq0xUETva5nYdCKGT2rYpW9xlGMs86uM73V70/dVrQF+sLOp79fW0g+8yrunvDTC585hFFf1G2dSX12g6nbTb13pN9Eqd+VfGaQu/5/r4tXukbyzG5Q685ZZblnV51hP4XvtcYXiJ0B9kiBkWHQKdxUcFZslU8AcSuwYAPiOOLZYRnUFHYqEMUa0CEfIquI4DfJwdY3DgPcJJR6LjEVVGA+C3rapnJVXhB/rtgTqgWil934yE31C5VfY6PViP0RAZXDjWNfkt+FzjQ/zXhsDzECrqiQXhNpfbaqutirhXXk3/KncWnZmhCmG40Z5Vkc8V0QZGwhsSXnvvvXfzhS98oazB4toQwviifOlnGTv04RKjhzawUvtquoJVnnGEPrAmxKCTdvA9/TMLPoPJb37zm9I3m33i3mthOH2hb24zkA4A46JzcffhZsklRz/PDciCYG7J+nVGGe2353SMWX2fab+rVgjDS6LuTCB81PjB1YWwRtNQ6BX+j370o812221XLDyum8WbpV0FIsD5yBHhKp9pYNF5nE+FEqv2c5/7XPGTr772zknMGwhoHAwCWJAMBFQyHZBV8yo5ga5RsBDMYMII3Hd1SH7beyq48xo4aCiMxq0810AI0XXSSSeVHXM1Qiyw2267bZmhcM2+o1JrdPwvlnuzABopli5uGd6voRZdi3MYMAzUsAwFibozPMjjmirKhHKkHOpMav2xpkPZUW50XMpL2zoawsSiLUz0LYwXRIu2+de//nUpn9oxs7baO/73dba1s4ynvA49vRZ1R/ki2G+77bYSLYcXgKQPVXa4AgtxLRqefp41nlutfpVvvH5eX8vCru/mZktrOLd+mUDXfzvO+Vn0zQhoWxnhrA00W++8ZufpKoLewNUslfzjjkbcOx9t4XqVdwuCnct/8Buug5HGueW963QORp1urQcGIwmv2aV0k9B3LfzRFHrWeaJEJSBerEr3vsJerfFQcbxH9BIyKpMKY7ROuCts1c+Tb3/tSFjViVTHEUbOYTDgtaRC6YhUMKGxrKbXITnW9+H3NBiS57VQ+9w5XK/GpR3dx/8ws+B8Pnc99XPXLXHJ0Ig4tv4XYtp7vuP7HnWMvjtclSlCf/hp57typzyoA+qMTsqgtdYj9ZzVylS18ioNNDsVwmDBbYLbJEHD4GHWUturfdeOaVu1Icqo95XjtCHdQS8JfSg3DG+0gD5ZEAxJ307X6MuVM32nflXbqI2U9NP0guMJc1pB/8p46Fh9t0d9snPXPtj72lB6wfv6wqqfvO/7jqVTvE9TeI+RUd0wwLVJJsOMa9DXux7XSo/QLnXQoc44R7fWj5Ei9LMz7gTi9/nGESAEC0EvSxUglnKvayUCK7vvOFaq+E8qUXV/Ufk1UsSOgte+TRoz53BejUAtmGYRzAwYmdeKXMW87/sNn3utwajn9r7v+P3aecH1+y3/pYovn9VrcQ2+45w+c4z/W7/nvP6D73jP9bqu+rvDQd0Z1wDIdWC4riX8I8qWpB7Yb8JUs0ZY+amDTp0ioaVcDWdZCv2BdkrSfnJxUO4MLLVhBA4Bo8wpe9rltBvdC5cVM4J1NpsQ7VZqW+da9b+1XwVtUAeR2sLa9yp7juM2633f0+cS2r5Ty6by7Lxm8T33mbLs0ff16fpveK+tW+gZ5bytHVjpRUqjuwh8MfP17T53Hr/j92gA36vo8527W9GvMP71+864EfqDxOiycWyFpn6v87gJOZ/kuPEpsO3fG5/vdTLQdU/I+QabCP3eQVlS13Ui6jrXCQNFG7exGOn8dDZ1AFnJ/QzjgvJFMBEoRBOLJSs+NwViZeeddy6zocqZMjVYbWSYePSS0K8oV7Vs1XLVWd5Gx7gc11lWO3+rTf2sPmp/aSyzqtdff31xD2bh33XXXd8R+gNdQ/vcA/1OtzBShP7flE4IIXQhBmMsUYS9nR4t3MWpp57aHHzwwcUH1ZqXap0KYVxRZqyF4l+sLFkXYqaIiPna175WXCJYNkMYyZjpYmgxs8odittO20shdD+x6PcZ7dvZjyPTCSUW/d5DmZZMK3MT41JhETz/fQvKWGO5V9iUjlAjztoW/hCgDOkvlCEuOhYXKkP8mgVN4OrIPUxfogxpF2oKvUEvWvRR27ha1oa7zLmW+qjOqC/y1EwXi36tH2hfa/1et/yPsRGLfuhJFNKaQugXlGfinS8qX2l+ohaW1Q24NNgG/yI/iC4hIpT3ascTRi7KgLVEIpkIMSiqCFcEZcpCRIsYlSWLHy1AbK+NCmGoqP12N5S7eh3qAR9+a1TUDxZ9rmy1fnRe60DvheEnQj+E0NW0Ow+POhmin/W17t4s6gRhzxXDbtRCz7HsicBB5JkNIPhqCv2Ne8wSabZHBB2hg2+++eZSJrxWfuxvsvnmm5dQwxYReq89y9cudyFMTHqlrLXrxbik0B1E6IcQeoKBOhIRHQh+rhdE25577lms/UTd97///bI9O+s+wWfhZVvsd6bQu7TvI9dO99oiblb8008/vfnxj39cFhIS9bvvvnvxM+aDb/2HchRCCP1KhH4IoW9glbVwd4899ig7lvIptQndUUcd1Zx55pnF15SlF21xGHof91G4wQcffLA5+eSTyw62IoXwvf3KV75SouhYnxNhH0IYSUTohxB6lmrZr8+5XvDj51PKys/32iJd/qUW8R577LHN2WefXRbxihfNpSf0Hu1BGuu90JjccuzmbRdQ77v/XLps/kPg182H2mUmhBD6nQj9EEJfQcTZXIZbBmuuuPvLLbdc2dGRq48wcQ888EDx5ZdsjiSEHHEYegPuOaKAWJNxyy23NLfddltx03nllVeKvz1hX0W+3TnrZn4hhDDSiNAPIfQl1XIrCaHIsr/33nuXBbzcdyzQFKXnhhtuKP7bRCLXj/bC3dAd1Pvh3lhc/dJLLxVhb4Mr6zCEWhYdZL311ms+9alPlUg6Znba0UGkEEIYaUTohxBGBEQfy+6CCy5YIvXstNNOzaqrrlrE/g9+8IOyaJOF2CLOuPR0H+4Jdys7155wwgnNAQccUGZjNttss2a33XZr1l133WaeeeYp97hGzwkhhJFOWsMQwoigWnUt2GX9tTES0S9Szw477NBMN910ZfHmL37xi+LHT/RzD4noH15Y8C2wJe6PP/745r777isuWXaw3WKLLZq55pqriHv3lHtOLPghhPD/idAPIYwY2iKQ4Cf2bbq1zDLLNIsttlgz33zzlQ25Xn755ebiiy8uEXseeuihYuXn7hN3nolPDY9p8bQFthbXXnLJJWXAZcMe4VP53ouuNO+88xaRX0V9+/52phBCGIlE6IcQRixVBBL8RP4KK6zQrLXWWkVAchPhB86CbIt0kXqee+65YuUPE4c//elPxR1HftfkHsjzJZdcstwbi2wJ/vYOthHzIYQwMBH6IYQwCq4fFnGuttpqJRa/xZ0syRdeeGFz0kknNVdffXXZWZXwZOFnfa4LRWsK4478kofykosOdylrJuS1R2J+q622avbZZ58y4zLppJOO+mYIIYRxIUI/hBAGQMx1lv111lnnncWejzzySHPYYYc1xx13XHnOAm0gEIH/7uCiI9qRvDz00EObY445prwWOYcPvgEXVyrhUkMIIYw/EfohhNCiuoGw7ttZl4V/xhlnLL7hRP+aa65ZwnWK3c7yfP755xeh2rbuh4GpFnwzIvzvzz333LLw+d577y3uOAZT3HMstpXn9kKwyDZuOSGE8O6I0A8hhLHAF3yaaaYp8dnF4+dGQohyJXn22WdLtJ7LLrusuJ7w7WepjuD//8iLuoOtzcosdLbRlUXPZk5mmGGGsrhW3trsqobIjO99CCFMGBH6IYQwBqrYlFj5WZnFa19jjTWazTffvFlggQXKIl2RYViphYJ84okniogdaZF6/NeawHpvE7Lnn3++DIIsaLYb8VVXXVXcngyY7GlgE7M55pjj7yLotGnfgxBCCONOhH4IIYwHbbHJos8KLRb/LrvsUvz1uaIcffTRzQUXXDDiN98y0Hn66aebU045pTn88MPLLrZcofbdd9/mM5/5TImkwz0qhBDCxCFCP4QQxkLbotyZuJhMNtlkZdHoKqus0nz6058uvvyvvfZas99++5VNnm6//fayyHQkuPQQ9y+99FJxZzrqqKOan/3sZ0Xcb7nllmU3YiFMZ5ppppJn1T0HNT87Gd37IYQQxk6EfgghjCdVfFYByqWHdd8iXYtKF1100RLvffnlly+C1qZbrNl807n11Fj8na4uvQj3HOn1118vrjnnnXde+a+PP/542Z9APiy11FLF9557jh2IWfETAz+EECY+EfohhPAuaYvUtmiddtppmyWWWKLZeuutyy6uLNrcePipX3vttSViDyFMHFc//l4T+67XDIWZC5ta3XTTTc3NN99c9hl48803ywJbIn+DDTYoEYvkQZt23oUQQpg4ROiHEMIg0Bb6UrXy23GXK4+FuyLLEMRnnXVW2XzrscceKwtVCf5ecetxjW+99VaJLvTMM8+Uxccs+P4Tf/z111+/2W677UoYUouWzWjIi4j6EEIYeiL0QwhhCLDLqygz+++/f7PDDjsUCzeBfNBBB5UFvFx6iP1uh7WeBd/ag4MPPrhY8cW9tyBZmm222d7Z4CriPoQQhpcI/RBCmEDalvzRpWrh56PO0r3MMss0a6+9drH2C8V5+umnl+g0d911V4k33y0W/hoi02LiG2+8sTn22GPLtfovm2yySbl+7kn876eeeuoi8jv/ewghhOEhQj+EECYSnYK3Jtb9mWeeucTgt1DVRlxe89d/9NFHm8svv7y49vDpt3CX4K9pKBHr3q6/V155ZVlbYNbBgMWCY2sQXPv888//zuZh9f+FEELoDiL0QwhhmCCaufAIy7npppuWKD3ve9/7isC/9dZbi1vMvffeW3zhh2LhLuu9mQS/9eSTT5YNwFjxbXJF5NsdeK211iqhMg1OXGsIIYTuJUI/hBCGibaV3467deGuDaVsxCVc5RFHHNGceeaZxS9e5J7q0jNYgr+ep+2iIxwoH/xDDjmkWPQ33HDD5rOf/WxZYDvXXHO9s4NtO4UQQug+IvRDCKFLIJjFl2fpF4t/5513Ljvuzj777M11113XHHroocWPn/geDJFfMXi4++67y7mPOeaY5o477igLh7/0pS8VgW+x7SSTTDLq6BBCCL1Czwv9wezsQghhuGhbxyV+/CLYiEFPdC+33HJl0Sur+wUXXNCcfPLJzT333FMW7rZdemoaG6LnCO3JLeeEE05orrrqqvK9JZdcsiSuOQsuuGBZO9C5iy06r7f9WQghhO6gLyz649qxhRBCL1CFM8t+FfzE98orr1x2mLXw9cUXXyyWfX78kg24xhSpx/sGBG+88UaJfW8NAJEvlj93Ha5DZhG4DHmsAj8CPoQQepeeFfqxIIUQ+pHatrUTa7pk4a7dZrfffvuy46yBAJF//vnnl6g4RLtQnaz1b7/99jtGEAJfBJ0XXniheeCBB0pUHzH8PSfwt9pqq+aTn/xkGUwM5H/fmUIIIfQG8dEPIYQegtAmxoW4rAt3N9pooxIl56tf/Wpz4oknFn/7P/zhD2WBrcS95/bbby+fHXjggeU8G2+8cbPTTjuVSD+s9+9///vL+yGEEPqH9/zf6OZ5uxiXLOScjWVMVdu0haUrlqYwNg477LDi+rDCCisUCylSbkIvQ8gLh/nss882Tz31VHnOqu9R+EuReoj4aaedtsS7544z66yzNtNPP/071vtaFyqpE6EXqSFh7T0hZO2HPvShUZ+E8I+89dZbxYXRWicBB9ZYY42+bPt6UuiD0OdfqjNjzYrQD+OCXT0/+tGPFj/kCP3QT3DV4bLDPef3v/9989xzzxVLvoEAgU/czzLLLCUWvt1rByr/qQuhlzHQFTHqtddeK228ch/C6CD06UjhhIU2jtDvMviW3nTTTWUBmgo9+eSTj/okhNFzww03NMsss0yJYBKhH/qVauUn+Fntq/V+bKQuhF7GxnJc1Cw2N3NrUBvC6OARYn8SbaUABIIdROh3EaboLEK74oormqmnnrosSksnFcYGC89KK63ULLLIIu+Ul5Sb0K9o3ol+ZbzTPSeEfkMkKhb9Cy+8sLirmbkKYXRoG7l5zT///CXIgTDG/UjPCn0jMWHi+J8S+enEwrhg0x+WTZ1AhH7odzTvtYlPGxn6HdGlCDcWWu162vYwNoh9eoAuELa4H+lZoY/aiaUyh3dDyk3od9rNe8p7GAn0sKQJw0g/t489LfRDCCGEEEIIA5O53BBCCCGEEPqQCP0QQgghhBD6kAj9EEIIIYQQ+pAI/RBCCCGEEPqQCP0QQgghhBD6kAj9EEIIIYQQ+pAI/RBCCCGEEPqQCP0QQgghhBD6kAj9EEIIIYQQ+pAI/RBCCCGEEPqQCP0QQgghhBD6kAj9EEIIIYQQ+pAI/RBCCCGEEPqQCP0QQgghhBD6kAj9EEIIIYQQ+pAI/RBCCCGEEPqQCP0QQgghhBD6kAj9EEIIIYQQ+pAI/RBCCCGEEPqQCP0QQgghhBD6kAj9EEIIIYQQ+pAI/RBCCCGEEPqQCP0QQgghhBD6kAj9EEIIIYQQ+pAI/RBCCCGEEPqQCP0QQgghhBD6kAj9EEIIIYQQ+pAI/RBCCCGEEPqQCP0QQgghhBD6kAj9EEIIIYQQ+pAI/RBCCCGEEPqQCP0QQgghhBD6kAj9EEIIIYQQ+pAI/RBCCCGEEPqQCP0QQgghhBD6kAj9EEIIIYQQ+pAI/RBCCCGEEPqQCP0QQgghhBD6kAj9EEIIIYQQ+pAI/RBCCCGEEPqQCP0QQgghhBD6kPf8318Z9TyEEMIw0tkcv+c97xn1LIQQQhh/elroZ4wSxkaEUuh22u3Y//7v/5aE9773vaX8pgyHXqSW65Tf0G7jUh6Gngj90He0O5g0KqHbqeX1v/7rv5rf//73zfPPP99MP/30zWyzzdZMMcUURfCH0Gu02+EwsmlrtZSHoadnhf5f/vKX0jH+4Q9/GPVOGOloQKaccsqS3ve+973zXhqW0C10dnhvv/128+c//7m58847mwceeKB8Pu200zYvv/xy8+abbzYLL7xw89GPfrQI/xB6AWX4f/7nf5qXXnqplO20v0EZmGSSSUo7pm/+p3/K8tChpGeF/nPPPVc6RmmqqaYqhSiMbIijueaaq1lsscWaD33oQ+W9CP3QTdTmlgD64x//2Lz44ovNM8880zz++OPlvVlmmaWZc845m6eeeqp55JFHikV/jjnmaGadddbSSU4zzTTNpJNOmo4ydC0Gr8r21VdfXcS+/jmMbP77v/+7PK666qrNdNNN17z//e8vr8PQ0LNC/5577mkuv/zy5qabbmoWXXTRZrLJJhv1SRipXHvttc0iiyzSbLbZZsUSiir0e62YZ3DSXyh/EkunWchnn322CHyC/sknn2zmm2++Ztllly0i/5//+Z/Ld3x24403No8++miZpTKIJfgNYqvgD6HbUMa5oB155JHNK6+80sw///yjPgkjlVdffbV54YUXmj322KOZd955m8knn3zUJ2Eo6Gmhb7r7jTfeaDbaaKPmgx/84KhPwkjl6KOPLjM7K6ywQs8KfddZrzn0D+7rW2+9VQT+6aef3jz88MOlw1t55ZWLxb66m9UFuGAZ5aLIOup711xzTXPHHXcU4bTJJps0Cy64YDkuhG6C0DeIZYgzKF199dVHfRJGKowVysMaa6zRzD777BH6Q0zPCv177723ueuuu0pHqNOL0A+HH354EUqE/kILLVTeq6JJJBPC6bLLLivCqZsWOKqCRB5r7eKLLx6h3wfUZtUjlzIdHXFPALHGzzPPPEXgzzjjjMUy346w0y6ztdxq51jFnnjiieZ3v/tdOac2Tzmfe+65y3R4dV9M2el9ur1bHlMZI/QNTK+88srmwx/+cLPmmmuO+iSMVLghXnLJJc1qq61WhP4HPvCBUZ+EoaBnhf59991XLPqsZBH6AYcddtg7Fv0q9KGIE0sWNx577LHFP1Bj0y3UjpEPtrKMiLXeRrvE//72228vfsrEvHLnvnLPIfL5LhP47Sa4fd9rmE3U9//0pz8Vsf/YY4+V8qzseM8CXoNEkXraswKhN6mDO+5b1m50Szfdvg59LiGvbNfy5jFCP3TC0HHxxRdH6A8TEfqhbxiT0K+C6KijjiquD/yhuwUdOrcMwm6HHXYY9W7Efi+hjElE2WuvvVbEPd97rjYEvsg53MlY3qswGtv9bTfN9VjvEYHaPTNTXBh/+9vfljLElYevP9GvPdSZ1pmrlKXewv3l337BBReU5zWK2HBTy6QZJTOQq6yySnHPqYvDlbMI/dBJhP7w8t5v/pVRz3sK1jLxpnV6CyywQBamhebWW28tHY6GZIYZZhj17t8goq38v//++4urg4GAiCbdkJRdotD1WViOKswi0LqTtgj33L0T7lf0HOXwhhtuaJ5++ulmueWWazbccMNS3ljwLbR1T8flvtbjOo9Vxgk/ZUdZNogQjMDvmkEwoIXfclz7HJ3nCt0Jca9/O+OMM8o94+7lvndDcj233XZbGdDqe81EtsuXtvb1118vdcHaE2U0jGwMWrkcCijACFEDDoShIRb90DeMi0X/hBNOKC4OK6644qhPhx8uGBdeeGHpHLfddtvyXrvjDN1HbTY9um933313c84555RytvTSSxfrOgGkXTKQI5Awofe1/m77+9UtjYWf+DKYvfnmm4uV3yBjySWXfMe6X68jdDdmhrho/epXvyohCd3DbmkLlEHtqPZUIAwzpO3yHYt+6CQ++sNLWv0QuggdZbd06GFgWCyJaLMwV1xxRXPmmWcWowPXnA022KAIfZarmWaaqUSX6FxoOyH3d6DvE1k6TrNYfP/9PoG/zDLLlKAFp5xySol4waImSlnoHRgulCGzQQaNw51ch2QGybW1y3RnuYRBQTuFEIaeCP0QQhhHWDEfeuih4m96/fXXFxdC09CsVGaJuOoQ24Mt8MdEPbffI8D4ThP5K620UnGbMKPAp5qVn8838R/BH0III4MI/RBCGA2skFwR+N9zRyDybWLFkm9TIJb7tddeu1lnnXWKqCa0h8tFpj2gMPiwy67r4l4hZr8FwldddVXZWO7BBx8s/4e7j/UFsbqGEEJ/EqEfQgijgZuOnWy55px44onNL3/5y2Id33HHHZt99923WM7bMey7DYMOLhd8vD/72c82++yzT5mVOOaYY5rjjz++LODl1+9/hhBC6D8i9EMIYQBsbnXaaac1BxxwQIkyIroNgb/FFluUDa86XXMqna+Hi/a1SdXKv9VWWzW77LJLs8QSS5QZiv/4j/9oTjrppPJ/QfTHuh9CCP1BhH4IIfwV0WtY7x944IHmoosuai699NJi7V5kkUXKAlePIowQy3zwu0HMjyuulTsRf/2ZZ565+chHPlL+D0u//8Y1ya7R/jcffv+by1IV/SGEEHqTCP0QwoiHsLX51HXXXdfcddddxf+e0CWI11133bLIVhSd6oPfSyIf1apfn9vEy0ZHhH6N889XX+x/4Tn58nNXEv86Qj+EEHqXCP0QwoiDeCVs+au/+uqrZV+Os88+uznvvPOKdVvs8m222abs/ClsJWt4Fcvt1GvU667/x6PZiZVXXvmd/ytvzjrrrBI2lHWf2JdP8isW/hBC6C0i9EMIIw6i9amnniqbuBx00EFlwzLWewtst9566xIuk5tLL4r5d4v/KzToeuut13z3u98tPvws+z/72c9K/tjp1MZcIYQQeocI/RDCiIE7Duu9qDM2kmKpZr3feOONm+WXX74I/CmmmKJE0alW75GC/1s3aOLWIz+E5mTtlw+iDv3iF79ofvvb35YNw1j2Y90PIYTuJkI/hNCXVCH61ltvNc8//3zxObfA1sZRLPqzzTZbs+CCCzaLL754WZhqu36+6yMNIr4zWYdgTYLdfhdbbLEy2yHSENcd+WgmhOB/7rnnipU/gj+EELqTCP0QQl8iio5NoiyyJUrvuOOO5u677y7WaFbqTTfdtPnYxz5WtvQXerJa8GOp/v/in4VfHP4FFljgHR9+78tTi5blq+c23zJbUql5mLwMIYThJUI/hNAXVFHJ6lx3s7ULLB/8iy++uJl22mlLHPxPf/rTxUpdQ2S200inMx/qa4MgVn4zH9ttt13Jw/nmm6/sEHzEEUeUsJydITk7UwghhKEnQj+E0DcQ91xL+N8fdthhzWOPPVaE6Z577tmstNJKzTTTTNO1u9j2CvJv6qmnLhuI1cXLb7zxRslvOwffcsstZSalbeEPIYQwPETohxB6GhZkITJZ7y0W5YMvgsxSSy1VXHS454gmwwWFi06n1Rr1vXYKf2OgvKmLdm2+ZXZkhRVWaJZZZpmyiJeL1Omnn95cfvnlZQOyas2PVT+EEIaeCP0QQk9BMBL3rMg2tuJ3z4os5rsoOlx0LCIlPon86aabLlb8QaSK/Yr85tKz4oorFtE/44wzlgXQjzzySHP99dcX4f/kk0+W2ZZY+UMIYWiJ0A8h9ATV19ti2hdffLF58MEHm9tuu6255ppryuOUU07ZbL/99iVUpigxH/jAB4pveaUtTsOEUwW/JJ/l9yyzzFJ22t1iiy1KVCNC/8orrywDsQceeKAs2nX/DNRCCCFMfCL0Qwg9AXEoLKaNm0444YTmgAMOKJteffzjH2923XXXZvPNNy+uJNxzwvBB9AtVuvbaazdf+MIXmvXXX78MzI4//vjmqKOOap544olyH0MIIUx8IvRDCF1LteA/88wzzdVXX10Evl1aLardY489yi6uor/wvxcDv4bIHCiFwWOg/JXqZ+7D+973vnJfWPbXXXfdZssttyz36txzzy2inw8/0c/NJ/77IYQwcYjQDyF0FdUHnwBkvRe68Ywzzij++HatnX/++Zull166JItsuezEB3/oGZ3Ir8+JffeFS48dh21MZsGuTcqmn376sokZtx7C38yMjbfc94j+EEIYPCL0QwjDBlHXTjX+PeF33333lQ2ZbMxEFNqpdfnll29WX331svhzsskm+zuh2RaZYXjpvCdEvwEZi/5aa61VQp1y7xGVx2JqaywspnbfvaccRPCHEMKEE6EfQhh2iDouOi+//HJZZHvppZc2p512WnnOCvyVr3ylWW211YoPPpeQSoR971BFPyu/SD2i9Fg8za1HZJ6zzz67ueSSS4rgF4e/LtqN4A8hhHdPhH4IYdgh6q677rqyi+2vfvWrEqJx2223bXbaaaey2FbMdlbh0D+4n1NNNVWZnbHegugXtUcUpW9/+9vl8ZVXXonQDyGECSA9ZwhhyGGp5aIj1vrFF1/cnHrqqeU5/+1NNtmkxL+fa665ygZM/PKJwmoRbqfQW3Tev/e+973FBcvAzqJdu+2ussoqZQ8E5eG8884razS4cdkjQbkJIYQw7kTohxCGBJZZQs1GV4TbVVddVXax5ZNN8BH2BJ7ERcciTu9XUYj286HCdXcm/yNuJRNGvZc1iZpkHYZFu9y05plnnlIG7Hp85513lkW799xzTykvNe+T/yGEMGYi9EMIE4UqxCQRdAg0YTL53dtISXrhhReKFXejjTYqi2yJfXHwu8VNh6AUDcZGT67bAIXYtPmT3V4NWtqiUwrjR1vsu+9V8K+55polfCrXHvls3YYyUzfeeu2110o8/oj+EEIYPRH6IYSJiggqBP1NN93UHHPMMc1xxx1XRN0nP/nJZrfddiuRWLjnsN53G65drPef//znzec+97mybkD67Gc/2/z0pz8t7iXZ/GniwaK/0EILNdtss03zjW98o5SRc845p5Sha6+9tvjwy/+I/BBCGJgI/RDCoFEtq9Lbb79dLK8nnXRSEcoPP/xws8466xRxb7dU1nvW27ZFt5tw/SzIFgjzE99ggw2ab37zm80PfvCDZs8992z+/Oc/l+gwr7/++t8JzYkhOtv5OhBj+7yXaJcHiZV/0kknLes1lJsddtihhOcUocmiXeXLgMv96pc8CCGEweK9f+24vjnqeU9hS3WxtTXuCyywQOkIwsjm1ltvLaLA5jwzzDDDqHf/hul9lj8x2bkFOKZbYDUmVLi3cGNp023id3RUceW/EGD+j5CJQiVyfREznWVWXZX/oq1UF50q6LoNsxAXXHBBif6y2GKLlUXCHuecc84SHWa66aYrfuRTTz11sTT7nwYz999/f/Poo4+W72ufDGZ8Lm+4m3ABqoMgx5oxUD7lBX90rimOYa32PYtV5S/3FfnqGL8lb/2ewYbvs347h0Wr3IrEpFem+Lf7Ts3j3/3ud+V3ncs1GLDU70rDRS0Hnal+JiynWPzyW/lxzd5Tr/UH3ML++Mc/lnIldeMM0biirHB1c4/nnXfeUt5qXnQD6rYyaPM69aB9bcqiwa/N7szUzT333KM+6Z32LAwu2jLtDuOO3bLVzzB0ROiHviFCf3ggQtVDnTthQqi2Nz4SSWeppZYqgkU9dY/8r3bqRvwPcd21M3vttVfxFddJieNPaFaR7/8Q9TfccENz9dVXlw6N0HZPCXFiR1L+vHf66aeX4wkhPv+EuOOJcd9Vjgl9eSlvCCn55jsWpDreNdW8luS12PSu67nnnmuuuOKKstjZd4gyEY6cixD2n+wybIDx0EMPlTTNNNOUa9QBd9v9qGWkJgKeyFfHCU3v+f/yz/97+umny+DFcQP1C47vdiL0Qz8RoT+8xHUnhDDOVNeImgxOWJDrRldE7OWXX14+42bBn3255ZYroqwK/F6BYGaBJ4Jt2iWWv+tv/wfPCR47+H7/+99vzj///GJ5Z2km8g888MDmrLPOKqJaPskj/uWHH354WbNAgLOu/+d//mdJjjUYcM4zzjijOfPMM4uQN5BiuXf+I488smwmxtjht6688srmxBNPLPsQEIjEvXtgPQS3Fq+J4Mcee6zsQOt416fDJcaOPvrostDVcURar0DIuyfLLrtss+mmmzaf+MQniuj8zW9+U/LulltuKXlE/Cun/lu77IYQwkggQj+E8K4gRrmocG8hKvmxC425++67NxtuuGERyO1dbHsNAhHTTz/9O2sJBoIFmYWTUP7Sl75UrP/ywOLd5Zdfvrn77ruLNYtFnxD3aBMwvuZ8/b/4xS+WmQFWrpVXXrn53ve+13z1q19tllxyyXIN8rgtTM0kbLXVVs3Xvva15utf/3p5zpJ/4403FkHrWKLWdW+88cblXLvuumtZYyC6kUXEftsGVVtvvXWz6KKLFsFv0NGrKGcGk/KV3758NGAyiDF4MuhiZQ4hhJFGhH4IYbxgmRZi8pBDDinWU6Jy1VVXLUKS5XuOOeYovtSsxqz4Ui9ClLOkY0wzEazGZjS4g1mHYNEo4W6a2qwGqzuLuvM5j3z5yEc+UgS7jaJ8j3WaS5nv+D6RbgMpArZuFFWTzxdeeOHiqsOCvcQSS5R1A9x5UK/V5wYa1kcYdLHgS9wpuISw+nMTcn31N9CL1u6aryz8/i9XMQu/hWyVryL1/OIXvyjrLQxQQwhhpBChH0YUhBuLKstnTV4PZ3JNRFa3CizX5Tr5dd9+++1FLHkE32FrZKwtYBkmXEfnh99OvQA/cLB08/ke3T0ilP/yl78UYV0HOP6jRbT8k32vWtrrfzcQILgJfLMF8st3pTo4IlqdqwrwivP6fs1Lv+s1Aes36jW6D0RuvR6zA2YXTjnllLKewPoAC1hde+dv9CL+o3zzf1n3DaYsnrZGxEDIZ6z8XJds1GYdiQFOzbOab8NN+3q65ZpCCL1LhH7oe6og0tFbFMQnWkdfE1/p9uuhTvymuX8Qg91CFRlEIEuxBaCuk8DnBsE6zVotWaRKlBKt8hn1cXTUe9LNEIvEPt947jPyoiJvDH6qlR4GAwZtVZx5zsff58Sn8lffR/1e5+cVrzvfA1HuHL4n+V0in+tPvW/1Gny/Puejf/bZZxe/f/+F5dtArQ4u+gn5Un34zYxsvvnmzVprrVUGROq/Rfl8+A18DGDdx8686wZGN7jsNWpZDSEMPe/5ayPSk61IjVZBHAl7Z0q6V6m3oN0Qtm9LGshx47DDDiuCiZ84F4o2OkzCzCZN3BYc12a485gl3C6gX/jCF/5OdA3ldbXLnPySWHxFbznhhBOKi8jaa69dfMeJwzb1OvuprBL3Fr5ae7DZZps1O++8c7GQuz+EtqgoXGuIxVNPPbWsVbAIVJQU5Yvf+xFHHFGi2nzqU58qi0a5y3zlK18psfj5y7PqC3GpDeP2xHd+xRVXLL//ne98p3yXG8pnPvOZ0ubxt2fB32effYpbDk4++eRyjSz4P/nJT8r1/PjHPy4uRfYvIOgNAn75y1+WOrLGGmsUn30i3+DN+wYLzrn44ov3dXvjvrHii3JkUbQF18q1fFem62B1uOog1EP3Q/lR7wymLWjvBlybxA3KINa1mdFr55dBkzJt5kR9scNxP5epMHbMpIn2tdpqqxVXxTpbGoaGCP0uoN6CdmNYG1TvpZEcN8Yk9Gt+WhSpE+3M0+HOYwJDGdYxthnK65I/hJD84YNPZPI9J2a5QXB/MCAhTkeXf8Odj4MJQSgaDRFvcMjnWzhBrjNmOUTasaDVPePOZM0CqzFBz5LsO4TaFltsUQYKZggmVOjvt99+xeVklVVWKVFmWOYNLiw0tbB2u+22K9ZqQt/i4LbQF7HH6zrg9T8IfddkvYBFwVxd+ukedlLLuHwzECKmzXTIK+sYuPnYqdk6iMpQ54drrEJfmbLmRfL+cNL+fWFk5ZcBrLYhQj+MiQj94SVCfwioWexRJ+ORINX4SToc7hDEFauuTkZjqbFXIQitdkM62NTr6/XGeExCv00vFfmhuies98SOMmg32JlnnrmIeq4O6hb3B6K0llsMVG56vQyh/i91lWBhIefTLn+8pz4S8uop8U9Ic70Su149dgxhzfde/rGgE0Py2OJXYTT33XffEhmG2OYaRGRb48BCSmxDJCOWZ+LToECbZ5CgXbAzrEcuO9oG7lPrrrtuWcxrcHD88ccXNzURaMwA1BkGITgNXvyu97Uvrtd9E72HyJ2YbU034P7WZN0Cq777TPzLb3lqtsMC87qx21CWa9elX7OAm2uf8tYNwqjmGQx0lW2ze8pRhP7okWfKlBC7DE0MJmPqn/qRCP3hJUJ/IiJrNXqmOBV0HboKDx0tIaVjJSBUAmHgxOJmNWS1IzB0OASARnUwcV06OQ20Kf8xhQ/sFQ466KBihRWRhPvEuNKNVWAo7wUBqmwqo8qcsicsI9cQlsTq+10Z07X1Q4de/6tHiaAm5Pl0q6vqDAHD0m5ApP6wkhPW1157bRGLMDgS7pEln1hT97lCsYYajOrwCXCLeVnbndOAwCPMGGg7fF87YYaA0Pd6m222KcLB72ovDA7cK/nvXvquumAgUhdHq/OMClyx3GMWWZZ8AxbfMaAQxcfsUj/TWd+Vf/kor90H91m/wqWHW4o8cf+GCtfnmtwvZcbzbqDWh/q8DniVrXa9d93Kkz0jtMPDLfRdq2viiqduqm/qnff1w+qbeqw+YLCv1e9w8zPrp+4ZpGtfxwdlUzlwvVKvEaE/vEToT0RUTJYPHYcFcDp5DY6OVCPJ+sbvV0Npx0ub2/AJ1tmzqnIZ8Nx0vmPbTOhtE0nEwkoiQMXT2buONmP6jW4UdD/84Q+L1ZIQMkBqM6br7ZaOFPU6hyp/3WMih7sHIem5MJlmlnTSrPgD0Y33f7CRNzW1GZf/PrpjxlSnKgOVAdZmgzBC3wBB/Hzif3wY3X/pfK+zHeh3ar5oB/QpXJnMztiozJoUAymW/XG574NFvZ4qotv3aCivo5N6HfVxoGsxQ8SIpK8zGO4Goa+/O/bYY4sxjZubWTjXpx9mSCNADb7bszed+T46Bvpv7e95XgeR1tIYfHOxG4jR/WbdI6O6cY0rw5nvbSL0h5cI/YmIBo//LEuzBsT0PAsRDAAs1OPjaBGYBoDQP+qoo4p1znfrYj9ToyzubXQC7VtXK3R9rzYYHjsbD69Z9H70ox+VWQV+xRrkgYS+35HqeeoxnncbXHdYwCwoNEBq043X2w3UcsH6ZjEpFxW+33zKNcjK3UAW3pGQn/KmXW/GxLjmx7icr56rfU5CX5unDSH0/+3f/q1Y48eHwf4v/UI7X7hWMLoQZcSg9lk+a4eHcgDUvib3o/P1cDEuZYiA5rrDeKCscl0b7mvWl+qHuROZqbQY3XVaiG5QZ9D8r//6r6XNc62S++27jvO8ff+9X/vFgdrH9vfADevCCy/8O6HvGAk1f+pvVurzb37zm2WAYuApoX6nfZ5K/d16zHAToT+8ROhPROyWaTGe6Xy7ZVpAx9qs8um4LQIzZSi8mw1dqtAXk9wiSJWDENfRqBhELH9SftQ+N/2oMzIw8P+9NoDQWXEbMIPg3KYq/W49zjGmEfnxmq40Rb300ksXy5XzacBMcbJoabANUswoaAx9rsj4D93SiFQMnGBRY6cPZLdda7fBzUN5Mb2tzBhochfTURucKjc6tJqPIyU/x7V5HNf8GJfzDXQuooHbkHbCwJ944lISxp/2PdDWEYHaTO2tdlU51+6a0Zp11llL2+uetIXexKZ9jX678/VwMS7lV1nVllgPIv+U1eGk3mNCX7/nekQ3A0u5naL1x3aaZvBi9NCXGtzRGGY59ZEs6Y7TL5o5JryVjepey2Cnr9R2ak/NmDOoyTOfqb8GGmZLud7plxlW5FFdA+Xe+g43wOreS0ccfvjh5T987GMfK32136MdXKNBhNk+ee76nEe77ZjqtjecZQYR+sPLe/86UvzmqOc9BV9TglWlIkQU6G5Bxda48MXlgqPy2w6f2GYh9doj30AFXucitjMBv+GGG5bKbUHdxRdfXM6jEfAdDcxpp51WOiW/oYJ7jzjTCKngKpTpSRWfRUUeSRo0EAmmMbkTaUDg3HVxoQZJ42PBnmvyvrx2Po2PRk0D1A2NRyf8knXS8sKAxPPOpAEf6P2RntxTZUO+KUfKBHRO8rV2avXet+m2cjCY+G/jksaVgb7bmQZCfXdPtCHKtwG6+4bRfSeMntp+ijrEEMOAou0zeCLwGUWIJeU9bcb4JeWRiGUs0pbYNG44ca8JYPulENEMZ/zkXSvjmf6Oq5EQpsSz3b71l/rWalTzPq3hfbP0/p9knYz3/Ia66f9qM88777wibK1V4LbDMMk10nOGPIYo/SnjFC2g3VX+5J32Vt9ssOB3DTYsyib06wyr9x0vj6tLkAGJ7xiEKNcGXNp014ThbCf8V7qFwZDRqPYvYWgYOhPFCEOjwBpOIBHQktF3Z2Wrrz3W58Q9ca2CqxwWA6ooLATEP8FlwakGSwPFMk/ga3g0ShoFlZ/A1/gYUFhMyDVDw+D7BhMe+Z567vp0agYBjjNAcb2iKrD0azw0XAYP/lvoPwgajTDXp9VXX73MjLDqG0jqfAz2RJWps0TKgQ6uncLEweBK/SSaWADVzTBu1LKpXVVuiXrlWHlWrj0noFhKlXvWW+1mNWa02+YwbnQaA7oFbRZxT3AT4do2/at2T1unjDBwMXTpR71PVGsbiX4iX1+rT2Ux128aPHhfH+lc+mx7NJixV44MGP2u79MDUB6JcoMMxyuXFZZ5swr6bPXcbzC4EezOp/4T+bwZaAK/rd9nKRd9yzXTDqeffnr5fwYAYWQToT+RUJE1KFApJ9QCrjHQIWl0TPvxM2SVMA2p0dI4abigUeJmYxZBqvG1ncMAgljgl2+gwLLAZ1BoPg2KxoUlg+VejHCf187P/zFLEaHf/xA+ZpJMM/NdNdhjJTKjdNlll5VOrS640zmGiUtbcNYUxh3lVHlVbrVhJ554YnGjUMa5VWof62yl9jP0Jyz7NYIWNx7tGfFNIOsP9dP6bsKakcsGdTaS02dWC/9uu+1W9sYQOWennXZq9t577zJoVLYMIs3GE9o+33bbbZsdd9yxrK0RgYsIr3W3PQCtz9uw3Ju508drf6074/piDwz9u0EFIW/A8I1vfKP085tuuml51KcbLBhs+DyMbCL0JyK1Eg+GEDLK18gQ+9/73vdKA7T//vuXHQpZ4c0e1ArNjYkwn3766csUGdHGak+gj+lafGYgoOHTEFqsa4MeQs9CItdgZkFjORj/KXQ/Ohudk8GeDkvnxcp0wAEHNAcffHCJC18HtCF0K0TPz372s7IBFcHPWLLLLruUcs3AEfofAtu955rzL//yL813v/vdYhW34NqGdAxyFUKaK08NH6rv45LDqk5wex9mxVnYzYzrgw0GHKvPNXB0Tn0wFxob6WlL2wwk8McVhj0zAdx+DFIMUmFwYFZWu+z/pn0OEfoTCY2KxsCjaTUifEIs4XX6zZShKTp+uvzdLM5hNeBmwb/U70kaIA2M5xoqzzsbFZ+h/T7Ll+emMf0Gi5ck9Jj1AxYUG0jU74b+opafen89snDqyAgiHYqyZnMl5YLvqQWiQhKawmZlMghsl7MweLTvT03hH2GM4KbIan/yyScXP2rll6XTTKi2TVtKeNV2MvQ32iR9sr7MYlyhalnnbYxmppxRo6KPqzPxUJ70wdpCnzlWmfG59zx3fgMHyXsMIvU4r/XJHtt0tpPj0nY6n6Svpina14T6W0hbHBChP5HQABBCRtdG+qb1NBYVFZQlflyt4yquc7EM2FFTiC2dFvHNxUa0AJ9XamMgYaDK3v6sfs4SoaFgjbAVPxcfSWQj04IaScfUBjCMHHQkOko+p8of9zEdpLLD2mUNB7ee+IWGoaa2YcqdAaeBJ5FP7MOMJosq1wcWWcJIG1bbwND/KB/60WocM6vDcMUiXwV47ddq31nLFWu5fo+I128T2dCPM26wmhsYMLY5Vp/OuOd4KJfWzFUN4NwGmGjPtHufK65zVjqvBfWaXC+rvePrZ67Fb2mvlfMMZEPU2kRCJbPTpClAFV6nw+2G6K/Cn9uDClmt6O1KXKnvs0YRVc5F7BtEEFys+yxTLPAsCPX4dqq0X2sgNBTcdMw4iEChEXIe1luNGlHHN1HyO66h7WMYRh7uvbKj8yCYbIZjwKmcs+4T+xaxEVjKtvJVy3cIEwNCSbtosCkKigW2ghZw1yHiGCmsNbHeiOtFLcOS5+0U+pvadukr22Wg0n7dfp8bbHV/5ULLPYebq0Eln3zn5EJjpkg/qf+3Js7n/Pb196Lu1MW4VYQbHBDqNIHy63iGEv1xu810vQYL3HUk5/FdycDAGgFBEpzD99UBgw6Ld6t1P4xcEl5zIkIUazgs/jn11FPfqcQWNYqKI24+EU1we19l3WijjUrl1DBYUc+yzt/Oe/zjazQd/98xfOmF0+RSQaQTWISWEHEW8LgGI3wNE2srK6yIPUS967EgScOhUdH46Bhdr0bJ77NIuDYxkb3H8mCQ4dhuQ75qnP0HjfJApDMfXJRv5VfnZqZJh6hcWvBYO0DiyjHJ+zAxIHq0ndo30VK0bTZ905ZqAzstmimHExd9hHuiHSBE9XHDib5NmRBeU/+obzQz3Ynj6AnGCv2bflJfAmKZ1Zx4t8GWPtVz5U3/a2ZAYhBj2LAYV3QefbZ+07oAr2FGQcQeaCN9boBK7NMJDCauhfFEJKj2cQavzq9M6+8NcA08XJOZBsZEz/Xr6gC3JIZA7fRwkvCaw0uE/kRAR1KTysjyqcMhml23kbnGb/PNNy8uN4SQ/wFTy8SSRTYaEzF3VXhW/BrSSyOqYTCCV4H5TIsa4Dy+5/xmE1gXNFDO7T3fcyyhrqL5HY2DxkLDxuLlN1wb64TvEPkGCYSafBZfWuNd/183EaE/NNR7X/PSo3Jo+lsjbqZJmWdRIr6IfhYqZUo9zT0IEwIhSQhpu8TAP/LII4tIakcII7i0h9q1dnmtKUw8uknoKycgjsWhVyYIeO1TJ/VYZcnsuT60usMqM/pygwT/Sd/rOM/NaK6//vqlvzUT7jd813cY0Tzq57k7MojoRx2rzVROlVFWef2w/tkgxO9oRz1Cu+o4/8GxzqGvZgj0X5zLzAGLvn6dtuByqy80G4DhLPcR+sNLdsadiMhaiTWBe4xQVyopQaSSKvQaBZ8bALCkE+xcZhzvNbHkWEJbY6UxsLJfhSbgNT7OowFRoVUojZCBgVkADY/vmR5kUahTixpjvysf/bYGS+PkfBqEOg1uMAXn02gQa9VCNpwNx0Do8DV4oiVozAei266536hl3iBRmTOFrMOHMsQtTOemHHnufoUwJmqZAquqmUjGB4NH7SnjBjGp7SR8qriv1O9W0gZMXPQ3RCfLsnrOvW+4aLdH+lNtkj5VG9SJ4/SLrObKkH5XG9X+rJY/bRrtYSCg7OlTq5+/43zmPPpP/bJ+17Fe62Odu16Xftm16c8Z9arBTj/LKAd9tdkIvyt/GfwIer/pWAY5ee4c/p8Bgt/xeS3vw1nu/UczJdkZd3iI0J/IyN6Bsrhd+To/r99pH9N5nMakMtDnaH+//Vl9XVN9ry26Os81EPX83UKE/vBTy027bLF8mXrWSXmPVV8npBPTIXkdwR8q7bantlXEDDFEMBD3ZjtBMJn1ZNQgjAi0MLx0k9BHuy1SngbqA9plrn1spfO99vEDnW906LfrNbTPVVNtB+v5269rqt+tx9TzoPOcqMcPJxH6w0t614lMrWTtpPLW5/WYNvWYmtrH1TS6zztpf1ZTfT3QOSqdr1G/X1MInbTLRy1bpsH579vIxaJIs0V2bbRZDfFvOpqljEConVMY2SgHrJPKBRcd1kw7dhvMs+ZzzxE1hR+ymUaDxYj8MDra7dLYGOi49velzr6zM42Oenyb+p2BzlWpr9vf7zymTT12oN8LI48I/RDCREeHw43MdLPdJD//+c8XV4tf//rXzRFHHFGsPcRce6YqjFwM+gwILXY85phjmrPPPru4Pnz7298uG7fVdVkRMSGEMGYi9IeAOvKuaSDGt8PqPOfo0tgY07Htzwb6PITR0S4vtfywuPIZ5bbDF9Wisw022KBEq7C2RBQqop8PLJe8WPdHFtWKb8BntucHP/hBcQHhmmMho1kh0cWs9TBobFtAQxgdtYyMqZyM7pj2+52fjYnO7w2U2nS+N6ZjxpRCGIgI/S5iMCrthH4/hMGiXRY7Ex9NCyeJOJGcWGhFSuKLLWSs8HB33XVXEXptlx6PGQD0D+6lBYkW1goTKIyvBdxec/kSUcTCQ7M/fHsFJWgLfCmEwSRlK/QbEfohhGFBR8rKT/TbtXTLLbds1lhjjRJxymJ74VJtKid+ND9+gj/0D9y0LKwVneSGG24o99reHWZ3xBrfc889m49//OPFgq+cRHyFEML4E6EfQhh2CDguPTaH23nnnUvik33OOec0//7v/97ccccdZVEmcVit+rHu9xbte+Y+ipxjc78f/ehHzbe+9a0SVnjTTTdttt122yLwB7Le1xRCCGHciNAPIXQVrLdEnl0d991332bXXXctbh3HHXdcc8oppxTXDvtJZOFub0HgG6yZrTn55JNLBB1h9zbeeOPy3GZXdT+QEEIIg0OEfgiha6gWW2KfRd+iXbtF2huBtV+kFVbgQw45pAh+Lj0Ef0R/d8MP36yMBdciLVlMa68LLlt1Z28b/XQusm2nEEII40+Efgiha2HdtRnSkksu2Sy//PJFHNocr/rxE/us/XaD5goS157uQL6LgW+zNPfHfXK/hMy0JmOhhRYqgze++BbdVh98dAr80aUQQghjJ0I/hNDVVGFH9M8///zN5ptv3uyzzz5lJ1QLdu3AKVKP3XcNAGwX3xb4EftDh7w22BI1h1vOjTfeWGLhX3755cVSv9lmm5U9FMzUEPxjE+wR9SGEMGFE6IcQegruHbbW32STTYr//korrdQ88cQTRUCKvy4Ofxg+rJ849dRTmwMOOKC58sori++9+8QXf955531HvEfAhxDCxCdCP4TQM1SBWBfsTjXVVMU6vN566xWh7z0W/hNPPLGITK4iLPzVpScMPja5st/Btdde+86CaWsphEu1C/Jcc81V1lu4N2Zh2kJfCiGEMPGI0A8h9BxVJHIHmXLKKcuOqauttlqzxBJLFGHJLeTpp58uiz+vuuqq4sOfBbuDi/z84x//WAZW5513XvHBN/Dic8/33s7HNkSbYoop/i4Ofk0hhBAmPhH6IYSeZ5JJJimCkrAUllMcdjvtPvrooyXay9133118+Ln1CPHY3m03jB15JbHev/76680zzzxT8tNmZtZJPP744yX/5f2aa65Z7sP0008/TotsQwghTDwi9EMIfQVxSeSz8H/nO98pVv7777+/uPOce+655bnFolXsR/CPHXnEgm+QROBfcsklzQknnNBcfPHFxXq/1157Ndtss01x0eGeE0IIoTuI0A8h9CUEPxceYRy33377kuaee+6yOdPBBx/cXHfddUXsh7EjDj5XqAMPPLD55S9/WUQ///tddtml5O+0004b63wIIXQhEfohhL6i7RZC7HMpEYt/jjnmKC4lovUQ/I899lhzxhlnNOeff37z8MMPF2t1/Pj/Bgu+RcxCZF522WXNmWee2Vx99dVl/cMaa6xRXKNmnXXWspOt/M0i2xBC6E4i9EMIfUGn0KwJFu2KBCMsJx9yC0Vnn332Imhfe+21smDXotIHH3yweeutt0a0Ow+Bb/HyhRdeWCLp1HClFtoKZbrKKquUSEf2NWjvYhtCCKH7iNAPIfQdbaHfKUIJVFF6xHcX232ZZZYpi0kJ/euvv77E5BcuUkQZLitEfzv1G/4TFyYzGi+++GLJCzvZnn322eU5K7582nDDDYvAZ8GPsA8hhN4gQj+EMGJh5Sf699tvv2bHHXcs0Xt+/vOfN0cffXRzww03FOHb7+48dZGtXWwtsOWDb2Zjjz32KDsQm/2wSVkIIYTeI0I/hDCiaFv5PXI/YaW2a+taa61VBP+6667b3HXXXWXR7vHHH1/ce4SWRD9Z+F9++eWysdhXv/rVYsVfaKGFmk996lPN5ptv3iywwALFXcfgp+ZZzbcQQgi9QYR+CGHE0BasbdFK7IvQM9NMMxX3FCJ3ySWXLIt2//znPxe3nosuuqjE5H/ppZeK6GcJ7zWxX+Pg33nnnc2ll15aFtiKib/ggguWMKQLL7xwGfDMOeecZfBD5KOdX+38q++FEELoTiL0QwihBdE/+eSTl4Wn66+/fonUw7Xl2WefLQKZS88999zT/OlPfyrCuRfEvuvzH0TRufzyy8v/4H/vP9jJdtttt21WXnnl8tz/r4tsO+kU+TWFEELoTiL0Qwjhr7QFriRkpCg9yy+/fLPDDjs0W2+9dbHin3feeWXzLeE5X3nllWLx71y02w24Dots33jjjSLy7RJ8wQUXND/5yU/KAMVi5E9+8pPlUfhRi5Qj2kMIob+I0A8hhHHAglTRZ/bee++yQNWusBbtik7DUl7FfrcgTKbQmK7viCOOKPHwDVwOOuigZqONNirW+xBCCP1NhH4IIYyGtoXb5lsf/OAHi9++kJzrrLNOiclP3NtQioAm+Fn4h1Pw2wfg/vvvb0499dTm0EMPLf/B7rWu10ZXogz5H2YsQggh9DcR+iGEMA4QzFx7JptssrJod5FFFmk+9rGPlUg1XrOg33333SUWvwg2Np2qC3YnNsT9Cy+80Nx6661lkyvXYR8A12Vh8eKLL16ud7bZZiszE20XpRBCCP1LhH4IIYyBKog7E7HMr32xxRZrttxyy+LWQ+w/8MADRXDffPPNRXALYVl3261pQnEOgwi+9s4v7v1NN93U3HLLLeU3uRGZdRALf9FFFy0RdCqd/yOEEEL/EqEfQghjYUzimOAXb57FXPSavfbaq4Sp5MP/2c9+tsSpt2h3MCH0LbTlJuT8P/3pT5tjjz22hMjceeedy3UQ+qIHcTmq19z5P0aXQggh9AcR+iGEMIgQ4azoFu1+61vfKhFvTjvttCLEr7nmmhLSkkhnkR9X6kyA9Oqrrza33357OZ9dfG3mZTZh//33L25E9gMIIYQQEKEfQgiDDAu/jbeWXXbZZqmlliq+/NNOO22JXy+8JT/6uvHW2CDuDQoMEK677rqyyPaqq65qZpllljJzYGMvv2HTKy46LPghhBACIvRDCGEQqe4votpMPfXUxaVHLH5uNeLVWzT70EMPNXfdddc7G1e9+eab/2Dhr+L+6aefLjvysuKLpmOAMOWUUzZLL710Oa/ZA4tuE0UnhBBCJxH6IYQwkaiinx//7LPP3my++ebN17/+9RLD3u66l1xySXP11VcX4c+P36JdAp9rj9feF8XnoosuKtb86aabrtlqq62aHXfcsZlxxhmbSSed9B0f/M4UQgghROiHEMIQMckkkxSrvvj7u+yyS7PJJpsUH/svf/nLzTHHHFPi8BP7L774YnnNzYfY33777Zvdd9+9xMKfc845y3lCCCGEsfGe/+MA2oPce++9ZdpbODudpQ1gwsjmyCOPLJZTmwLxXUanZTOWztBNvPHGGyXevvCY4t5rz4TGrKE7p59++iLsbXJVXXNSpkM3YzbqmWeeKetI7MRsUBtGNgwYopCtvvrqZWYzAQOGlp4V+qa9xY3WSa6yyip/Fyc6jEzOOOOMYi1dY401IvRDT6D5lfjo88UnkETpIernmGOOIpQs7B1TuU2ZDt0Eoa9fPuuss8rmbMK8hpGN8mCNEdfFueaaK0J/iOlZof/www+XDWkIfhYv1q90eCMbGwXNP//8ReizgA5EykjoVqror4ty2/HvQ+gVCH2uZ0LKcktjwe1RmREGiddff72Uha233rrszm138TB09KzQZ/Vi/XrsscdGvRMRN9IhkIQcZDEQlSSEXqTdJKdNC72G8mudyX333VciRCnD3utRqREGAa6INu+rIYCzxmho6Vmhz2ogaVBCgKLM5cHsThqS0Ku0m+QI/dBrKL8SdzR9dJuU55ELsS9KmMeUg6GlZ4V+vewUmFBpF+WUixBCGD4GkhZpl0MYenpW6IcQQgihe+mUFxH6IQw9EfohhBBCCCH0IdkwK4QQQgghhD4kQj+EEEIIIYQ+JEI/hBBCCCGEPiRCP4QQQgghhD4kQj+EEEIIIYQ+JEI/hBBCCCGEPiRCP4QQQgghhL6jaf4fZxOAhcrPZdIAAAAASUVORK5CYII=;clipPath=inset(6.52% 4% 41.3% 3.67%);" parent="1" vertex="1">
          <mxGeometry x="100" y="12.489999999999998" width="681" height="147.50902527075814" as="geometry" />
        </mxCell>
        <mxCell id="3sGvOlAY_ciUMnHrA1yT-3" value="ID_Motorista(PK)&lt;br&gt;Nome_Motorista&lt;br&gt;Sobrenome_Motorista&lt;br&gt;DtNcmnt_Motorista&lt;br&gt;EndereÃ§o_Motorista&lt;br&gt;RG_Motorista&lt;br&gt;CPF_Motorista&lt;br&gt;Telefone_Motorista&lt;br&gt;Cidade_Motorista&lt;br&gt;CEP_Motorista&lt;br&gt;Bairro_Motorista&lt;br&gt;Categoria_Motorista" style="whiteSpace=wrap;html=1;aspect=fixed;" parent="1" vertex="1">
          <mxGeometry x="120" y="160" width="190" height="190" as="geometry" />
        </mxCell>
        <mxCell id="3sGvOlAY_ciUMnHrA1yT-4" value="&lt;b&gt;Motorista&lt;/b&gt;" style="rounded=0;whiteSpace=wrap;html=1;" parent="1" vertex="1">
          <mxGeometry x="120" y="130" width="190" height="30" as="geometry" />
        </mxCell>
        <mxCell id="3sGvOlAY_ciUMnHrA1yT-5" value="ID_LicenÃ§a(PK)&lt;br&gt;Categoria_LicenÃ§a&lt;br&gt;DtVenc_LicenÃ§a&lt;br&gt;ID_Motorista(FK)" style="whiteSpace=wrap;html=1;aspect=fixed;" parent="1" vertex="1">
          <mxGeometry x="580" y="160" width="190" height="190" as="geometry" />
        </mxCell>
        <mxCell id="3sGvOlAY_ciUMnHrA1yT-6" value="&lt;b&gt;LicenÃ§a&lt;/b&gt;" style="rounded=0;whiteSpace=wrap;html=1;" parent="1" vertex="1">
          <mxGeometry x="580" y="130" width="190" height="30" as="geometry" />
        </mxCell>
        <mxCell id="3sGvOlAY_ciUMnHrA1yT-9" value="1" style="rounded=0;whiteSpace=wrap;html=1;" parent="1" vertex="1">
          <mxGeometry x="260" y="30" width="40" height="40" as="geometry" />
        </mxCell>
        <mxCell id="3sGvOlAY_ciUMnHrA1yT-10" value="N" style="rounded=0;whiteSpace=wrap;html=1;" parent="1" vertex="1">
          <mxGeometry x="570" y="30" width="40" height="40" as="geometry" />
        </mxCell>
      </root>
    </mxGraphModel>
  </diagram>
  <diagram id="-ApIpOViOD44HX2rS8_y" name="PÃ¡gina-2">
    <mxGraphModel dx="1354" dy="1887" grid="1" gridSize="10" guides="1" tooltips="1" connect="1" arrows="1" fold="1" page="1" pageScale="1" pageWidth="827" pageHeight="1169" math="0" shadow="0">
      <root>
        <mxCell id="0" />
        <mxCell id="1" parent="0" />
        <mxCell id="ntNYW90rxtzkvmFBTzZF-1" value="" style="shape=image;verticalLabelPosition=bottom;labelBackgroundColor=default;verticalAlign=top;aspect=fixed;imageAspect=0;image=data:image/png,iVBORw0KGgoAAAANSUhEUgAAAqkAAACACAYAAAAoGvAQAAAAAXNSR0IArs4c6QAAAARnQU1BAACxjwv8YQUAAAAJcEhZcwAADsMAAA7DAcdvqGQAADUoSURBVHhe7d0LvG1T2cfx2duNSomTbu6VFFIhJTnpuCT3u0RSKBHd7/dPKt3vcksh5RCOFBG5X6II5ZZOShIlSXR/376jM7zTau9tn87ee8211//3+czPXnutueaac8xnjvEfz3jGM+73v/+iCSGEEEIIoUP8z7y/IYQQQgghdIaI1BBCCCGE0DkiUkMIIYQQQueISA0hhBBCCJ0jIjWEEEIIIXSOiNQQQgghhNA5IlJDCCGEEELniEgNIYQQQgidIyI1hBBCCCF0jojUEEIIIYTQOSJSQwghhBBC58ja/SGEMB/0Vpn3u9/95r0KIYQwkUy6SI0GDvdFGvnQddr12D//+c+y4f73v3+x39hwGESqXcd+Q7uO65I9RKSGvtCuHFNBhq5T7fWPf/xj86tf/ar5zW9+08yYMaNZaqmlmoc97GFFrIYwaLTr4TDctLXa0IjUv/zlL6VS/8Mf/jDvnTDsMP5FFlmkbA960IPueS+VZOgKvZX1P/7xj+buu+9ufvSjHzVXX311+XyxxRZrfve73zV//vOfm5VWWql52tOeVkRrCIMAG/773//e/Pa3vy22nfo3sIEHPOABpR7TNv/P/3RjytKkitSbb765VOq2hz/84aUAwnCjYV9uueWaVVddtXn0ox9d3otIDV2iVoka7zvuuKO59dZbm5tuuqn5+c9/Xt57/OMf3yy77LLNL3/5y+anP/1p8aQus8wyzZJLLlkq+Ec+8pHNQgst1JlKPoRedLzY9tlnn12EqvY5DDd/+9vfyt/nP//5zeKLL948+MEPLv/3m0kVqVdeeWVzxhlnNBdddFGzyiqrNAsvvPC8T8Kwcu655zYrr7xys9VWWxUPFKpInURTnBQirKcX7M/Gw2T059e//nURp8ToL37xi+ZJT3pSs+aaaxaB+sAHPrB8x2cXXnhhc/3115fRAR0wYlUHrIrVELoGGxe2ctBBBzW33XZbs8IKK8z7JAwrv//975tbbrml2XPPPZsnPvGJzUMf+tB5n/SXSRephsjuuuuuZrPNNmse8YhHzPskDCuHHHJI8ag/97nPHViR6jzrOYfpg/v617/+tYjTY489trnuuutKZb3OOusUT2kNUamTpcAjJayJV8r3zjnnnOayyy4rjf4WW2zRPOUpTyn7hdAliFQdME4kHaoXvOAF8z4Jw4qONnuYNWtWs/TSSw+HSP3xj3/cXH755aUSV2FHpIYvfvGLpZEnUp/61KeW92qDb8a0Rv/0008vjX6XJqN4TAgUXrKnP/3pEanTgFr1+SsMRSVNmGq8eUGf8IQnFHG6xBJLFI9oeyZ/22ar3arneCNuuOGG5mc/+1k5pjqPnS+//PJlCK2GPMV2Bp9JbDonhLFsjEjVqTrzzDObxz72sc16660375MwrAhdOu2005p11123iNSHPOQh8z7pL5MqUn/yk58UTyrvRERqwAEHHHCPJ7WKVDBDDb2JKIcddliJh/GgdIVaqYs5ZMuI0Bhs1EviTS+99NISl0eIsjv31ZA+gSpWjzhtV5Pt+15TUaG+/6c//akI1blz5xZ7ZjveM9lKB0dGgLY3NgwmtWMi5EOscldEa/s8tLlEKNuu9uZvRGroRSf91FNPjUgNw81YIrU25gcffHAZLhX/1xU0RoZyiZKdd9553rsRqoMEG7MRFLfffnsRpmJNDc8Tp2boC0Hh8ayN+n3d33b1Wff1HgGj3jMiIOzphz/8YbEhw/9iWwlW9aGGoI4YxJYGC/dXPOfJJ59cXtdsJf2m2iRPvpGfmTNnliH9OpGPnUWkhl66KlLv/95/Me/1hMNLIZ+gCnvFFVfMJILQXHLJJaWy9BA86lGPmvfuvyEAzTC86qqryvAoEWvmdBc2tkvQOD+TAFFFRcRFN2kLSK/dOynxzNJnhxdccEFz4403Ns9+9rObTTfdtNgbz6lJUe7peO5r3a93XzZOtLAdtkwAmzjqd3ludcbgt+zXPkbvsUI3IUy1b8cdd1y5Z0JE3PcubM7nBz/4QemMaXuNALXtS1175513lmdBrDUbDcONDpcwJZM/daDr5NB+E09qmFLG40k98sgjy7Do2muvPe/T/mPY9pRTTikV+4477ljea1f6oXvUqs1f9+2KK65oTjzxxGJna6yxRvFqarzVSzohGncs6H2tv9v+fg1l4VklHHTEvv/97xfvKoG82mqr3eNVrecRug2PvLCOr371qyVtj3vYlbqADapH1acmLRuZatt3PKmhl67GpKY2DGE+Ucl3pTEKI8NTRADyfn/ve99rjj/++NJhNpy/ySabFJHKY/CYxzymzGLtnRS1IPd3pO8TCCp9owdiXf0+cfqsZz2rTDA9+uijy8xangzZUMLgoNPNhnjhdXj6vTkPG8+9c2vbdK9dgqBtbyF0iYjUEMK0gvfo2muvLfFV559/fgk7MnTFO8A7b3ifUJxocToW9dh+j3gQK0igPu95zytDrTy5Ygh5V8U4Eq4RqyGEYSciNYQw0PD+GL4Ub2oIk0CVYJ8HVcJyHtMNNtig2XDDDYsgJBL7NazeFsOEs9WrnJchWTlZTeY666yzyqIX11xzTbkeIQLiaePtCiEMGxGpIYSBxtC+FaIM5x911FHN4YcfXrySu+yyS7PvvvsWj2U7R2nXIJgN04pp3GOPPZp99tmneIMPPfTQ5ogjjiiTrcSxus4QQhgmIlJDCAOLxPvHHHNMs//++5fZzGbRE6fbbLNNScbfO5xf6f2/X7TPzVa9q9ttt12z2267Nc985jOLZ/hDH/pQ87Wvfa1cLwjWeFVDCNOdiNQQwsBgljyv6dVXX9185zvfab773e8WL+PKK69cJiP5ayYzoSfmtAtCdLw4VyEI4lMf97jHNU9+8pPL9fCwujbhDFZjc91iVl23MIcqWEMIYboRkRpCGAiIMonxzzvvvLLcsnhTIo2Y22ijjcqEKLP1a8zpIAlUVG9qfW2BAUnYidSax1VsqtyuUliJXRXiIL9hRGoIYToSkRpC6CSEF1EmPtOa+PIuz5kzpznppJOKV1Fuyh122KGsqCO1Ey9kFXrtbdCo512vx19e4XXWWeee61U2J5xwQkmtxatKqCon5RXPaghhuhCRGkLoJASXddElmP7MZz5TFlPgNTUZavvtty8ppQyND6IQ/W9xvdJnvehFL2r222+/ErPKo/qFL3yhlI8VhCwaEEII04GI1BBCpzCEz2tqdrsk9zyEvKabb755s9ZaaxVxarlRs/Wrt3FYcL01ebxQAOUhfRUvq3KQ3eDLX/5y88Mf/rAsZsCjGq9qCGFQiUgNIfSNKqLqOuhiLE2GktSeJ3WppZYqy5daJtckIks4itUcNgjQ3k3crRhcq2ituuqqxcsso4HhfuXIA02s3nzzzcW7GrEaQhg0IlJDCH3DbH0J7E2IIqguu+yyssY+LyDv4JZbbtk84xnPKMs8Ss9UPafxEP6/cOVZlWd1xRVXvCdm1fvK1AQz5eq1hQF4qSu1DFOWIYSuEpEaQpgyqiDi7aurRFldScypZUwXW2yxkuf05S9/efEO1jRS7W3Y6S2H+j8Bz7vK4/ySl7yklOGTnvSksvLWgQceWFJX9aat6t1CCKFLRKSGEKYUwtRwtHjTAw44oJk7d24RVXvttVdZy/6Rj3xkZ1eHGhSU36KLLloWN6gTze66665S3lbkuvjii4sHu+1ZDSGErhGRGkKYdHjupJHiNTWxR8ypmeqrr756GdY3pG/WumFrw/q93kLU99pb+DcjlU2dYGVhAF7p5z73uWWJWBOuhFUce+yxzRlnnFEWR6he1HhTQwhdIiI1hDDhEDuEKe+dpPviTHnv5PQ0W9+wvgk/hBOB2uW19QeRKlQrylsYwNprr10E6xJLLFEmq/30pz9tzj///CJaf/GLXxQvd7yrIYSuEJEaQpgwamyjiU+33nprc80115Q19c8555zyd5FFFml22mmnkk7KbPSHPOQhJZay0hZWYcGpYtWmnJW3JWOtYLXNNtuU7AlE6plnnlk6EZabNcHK/dPJCCGEfhKRGkKYMAgbqaMklT/yyCOb/fffvyTkf85zntPsvvvuzdZbb12Gnw3ph/5BsErntcEGGzSve93rmo033rh0Ko444ojm4IMPbm644YZyH0MIoZ9EpIYQFojqOb3pppuas88+u4hTqx+ZALXnnnuW1ZHMMhdvKsdpTSM10hYmjpHK11Y/cx8e9KAHlfvCo7rRRhs12267bblX3/zmN4tgFbNKsAoNSLxqCGGqiUgNIcw3NeaUeOE1ld7ouOOOK/GnVoNaYYUVmjXWWKNsJkQZ5k/M6dQzmkCtrwlV90UYgJW8LJpgcpUFFGbMmFEWWBAKQLTyiFsUwH2PYA0hTAURqSGEMSFI2lvNb0q0WL5UsnhJ4wkaKyBZqvMFL3hBmaiz8MIL30sktQVS6C+994Rg1ZngSV1//fVLOjAhAWb/m/gmptjEN/fde+wgYjWEMJlEpIYQxgVBYlj/d7/7XZkQZfnSY445przmfXvTm97UrLvuuiXm1DByJaJ0cKiClXdVRgDZAEx0EwogA8CcOXPKcqvEqjyrdYJVxGoIYTKISA0hjAuC5LzzziurQ331q18taYx23HHH5mUve1mZGCUnJ29cmD64n5ak5RUXX0ywyg4gW8P73//+8ve2226LSA0hTAppUUIII8JDZlhfLk1Lls6ePbu8Fq+4xRZblPymyy23XEkOLw6VoKmeuPYWBove+2epVWEbOiUmWFnFaubMmSXHLXs46aSTSkyy0A85cNlNCCFMBBGpIYR74BEjMiThJzrOOuussjqUGERihSglTmyG9U248X4VNGi/niqcd+/mOjIUvWDUe1k32RnEHZtgJbTjCU94QrEBq4lZ6tYEqyuvvLLYSy37lH8I4b8lIjWEIaaKCJuZ+sSFVFLiTCV5t91yyy3Fe7bZZpuVCVGEqjynXRnaJ4bMOpeE3nkT14SSxPRWUSK424LJFuaPtlB136tYXW+99UqKMeEAylmcMpupiwLcfvvtJd9qBGsI4b8hIjWEUGZqE6MXXXRRc+ihhzZf+cpXiiB58Ytf3Lzyla8sM74N6fOadg3nLpfnl770pebVr351iZO17bHHHs2nP/3pMiSdxPSTB0/qU5/61GaHHXZo3vWudxUbOfHEE4sNnXvuuSVmVflHoIYQ5peI1BCGjOrRsv3jH/8oHq+vfe1rReRdd911zYYbbliEqVWIeE15zdqetC7h/HnuTOYSF7nJJps0733ve5uPfOQjzV577dXcfffdZRb6nXfeeS+RNBmCqV2uI3Ffnw8SbXuw8a4utNBCJT6Z3ey8884lhZVMECZYsS+dBfdrupRBCGHyuf+/KvT3zns94VhmT+5EFdOKK65YKrEw3FxyySWlQZM4/FGPetS8d/+NIUEeFzk3DSXapyvw1mlkDYkb+m7TNeE2GlUYuBbiwfVIKySdkOFyOTF5xDyryt+s7jqsX8VI1+D9Pfnkk8ss81VXXbVM6PJ32WWXLbPQF1988RI3ueiiixYPn+skxK+66qrm+uuvL99XPxHiPlc2hqiFDVQBb1+eWvapLMRfGs62Dy+h75lYpHwNeStX+/gtZev3CGXf53V0DBOMhCLIOcqmxHP6Ti3jn/3sZ+V3Hcs5ENv1u7Z+Ue2gd6ufSV0l16ryZj/O2Xuea+2BUJI77rij2JWti5758cJWhMe4x0984hOLvdWy6AKebTZoYQ3PQfvc2KKOm4U4jJAsv/zy8z4ZnPosTCzqMvUOx4RV6LqydHVEaphSIlL7AwHlOdQwaVSJrHZSdjP2V1999dLYek7dI9fV3rqI65C3Uz2z9957l9hIFaw8rURSFaiuhyC94IILytKtKmMi0T0lIjXUNvbnvWOPPbbsrxEX40pE2p+Q9F12TKQqS2VDBCg33zF5yP7OqZa1TVnLPeq8br755uZ73/temZjmOwSFTAqORcS5Jqt3EcfXXntt2Swz6xw1Hl27H9VG6kZ8EqiecSLJe65f+bm+G2+8sQhv+43ULti/60SkhulEV0VqhvtDmGbU4dS6EdY8dzUJPwFmTXafGZoVv/nsZz+7CIoqTgcFYo/nk4CzoIBcrc6/fQ1ea6ytjPXhD3+4+fa3v108njx8BOpHP/rR5oQTTiiCUDkpI/GUX/ziF0uMLvHIq/mJT3yibPYlZB3TUrDHH398EaE6ATymjn/QQQeVhQ501P2WpUWPOuqokmeWuCFM3QPxv4bC/U/AzZ07t6zsZH/np7EgJA455JAyKcl+BMagQIS6J2uuuWaz5ZZbNi984QuLYPrWt75Vyu7iiy8uZUS4slPX1rbdEMJwE5EawjSGkDKsbUicIBK3KX3Uq171qmbTTTct4q69OtSgQdzAOvM1dnYkeO54loi8N7zhDcXrqgxMtLKMq2U/eRF4UolIfy1QILZSbOvrX//64pHlXVhnnXWaD37wg81b3/rWZrXVVivnoIzboooHd7vttmve9ra3NW9/+9vLax7UCy+8sIgx+xJkznvzzTcvx9p9991LTK0sCiZ8+W3J87fffvtmlVVWKWKVYB5U2JmOkHIVp6ociX0CnPDXYeDdCyGESkRqCNMQHkFpmD73uc8VrxVB9PznP7+IIB7HZZZZpsQO8tbxntoGEYKSBxNjeYB563iShZCIuzXBh+g0tMWbzNvJk+l4jqNcnvzkJxexKYm97/EKCkPxHd8nMCW3J75qEvu6+XyllVYqw/s8h8985jNLnKwQANRz9TmRLB5Yh4Hn1GYI1jAyb6vQAudXfwOD6GWs5cqz6nqFl5ikJ62ZcpUR4Mtf/nKJL9a5CiGEiNTQOYgOniwep7r5v5+bcyIQuioOnJfzFMd46aWXlobeX4iVExMulpZHjugaLe60vQ0C4h7BwyjGcbR7RORZ1pUorOLcNZrwJB7P96qHs147EUssEqe8tMrLd21V2BNcjlXFY8Vxfb+Wpd/1P/HlN+o5ug8EWj0fXlle3aOPPrrEz4qHNdmorpE/6LhG5eZ6eVV1BEx0ExNNxPuMd1W4g0UkxE0T57XMarn1m/b5dOWcQpiORKSGTlAbc42UAG4xgBqpuokNbP8/1Zs4QUPGhExXqA0kAcNDZ7KO8yRODZ3yCvIS2kwoIqgILuWM+nc06j3pMoQOoSoW1JC7sqgoG8K9ekdByOpwVGHhtZhWnxNO7K++j/q93s8r/u99DwSlY/ieze8SqMIF6n2r5+D79bWY1Dlz5pQ4V9fC46iTUYXxdEK51JhVHumtt966WX/99YuY9/ybQClmlWjX+XIfe8uuC4zWMRo0qq2G0CXu96+Ha9KerjorVsMuNYxhrEGlFlP7IW4XXR7u8XHAAQeUxl5cpGHXNip7okICeUOd9mvT7zLmgbS6zute97p7CYapPK+2zSkvG0+bWeJHHnlkGVbeYIMNSqwkYdOmnud0slXC1CQlsbZbbbVVs+uuuxbPpPtDJJp9bTie0Jk9e3aJzTVhx2xs9iXO88ADDyyz51/60peWCT6G2N/0pjeVXKviQ3lTpYFShwmVECu69tprl9//wAc+UL5r6PoVr3hFqfPEl/Kc7rPPPmUoH1//+tfLOfKcfupTnyrn88lPfrKEIchPS4wSsIcffnh5RmbNmlViVAlUHQ/vE7qOaUnS6VzfuG+8p7IpmMBmchy7Vu5suna0+vUMwnPofrAfz52OoMmHXcC52YRO6IA5NyMp7fIi+Nk0j7Xnxcph09mmwn1jBENWEcsdC2+qo1T9JiJ1nNRiaj/ItTLwXh7w8TGWSK3laQKLBqC3TPtdxhpHNqxSbzOV56V8NOLKR8wpgSTWkhAzdGrIlJgmrEYrv36X40RCzJj1ToDq2IhxlHLHcDvvshn9Jh+5Z0IgxOjy1hGjPHi+Q2Rss802ReTyzC6oSH3zm99chqlnzpxZZrPziBLGJgWZBPWSl7ykeAmJVBO52iJVZgD/186a6yBSnZP4WBO4DI9Pp3vYS7Vx5UbEE4I8zMpK3K7QACugifutTHV5OMcqUtmUGG+b9/tJ+/elWlNeOl/qhojUMBYRqR0XqbUY/FVB+ktMeXBtKktDqIQBb5oK0oOuonIziYR2JTDR1PMb9IpkLJHaZhLNcsKZqnvCa6qhZoNWWXrc4x5XBKnhUc+WIVOCqtotRrKbQbch1OvyrGpseSbFcCof73keiVDPKeFKBArXkJvUc2wfolCsqfLjudSQK2MTlaSa2nfffcsMdEJROAGBKKaXZ4pQhIwJPH6EE0GrziNw1QtWXPLXML+6QcjFRhttVCZeEbZHHHFECW0x053ntXp2pakivP2u99Uvztd9kyWAQJvMuqYLuL91E6fLm+o+E67KW5nyMpsMWBedmEq7dl7aNZPthAOxty406rXMoJPGto2qsKOI1NFRZmxKGjpOEp39sdqn6UhEakdFqsv3wBoWcZM0RowVGgkiQKOg8XMDpUqRa5G3hrdE46iy1HipECYS56WCVrkYJhwrxc6gYPlK3i8znw25jpdJNNP/mqm8F8QT22SjbI7tSV1kOJkHp8Y6VsY6t+nQGNVr9ddGDBKhYhg9q54ZjS8PJzHv+eGdJAqtJ0/ogLCXEokHldDw7Auf4IXSkdJYEY8mXvFyOiYx6y94atUdvq+e4JklUv1vLXuNnt9VXxC27pXydy9917NARNeJbJ55HWLhG+4xTxgPKrHtO8SwbAG8+tOZ3ued/StHZe0+uM/aFWEAhrKVifs3VTg/5+R+sRmvu0B9Hurr2lljW+3n3nmzJzmB1cP9FqnO1TkJ3/Fset48d97XDnvePMeeB0z0ufodoUFGWzx7Opjq1/mBbbID52sbNCJSOypSGZUep0rPZAUNlIdFI+AB5/UQ5+Yht5KMxNti4DRUvFmGGb02BGjfNgtatGYsmwSjAWM0Girn0Was3+iiGPnYxz5WvEUaceK+zVjn25VGAPU8p6p83WMNtCFiIshrqaR49DUwvKcj0cX7P9Eom7q1Gc+1j7bPWM9UZSQb4OXTgSBSiVv5UQnX+WG0a+l9r7cemO7UclEPaFOEP/CKW0RBDLZOAI/qeO77RFHPpwrA9j2ayvPopZ5H/TvSufDMc4Bo63TkuiBStXeHHXZYcQQJjTH64fy0w5xAxJOOY9tr3lvuozHStbW/53XtAIkd13EUljMSo/1mzYFcQz/GSz/LvU1EakdFqodVvBgPH+M3pKdnDuLVpAoxPQL2GS+RevDBBxeviO/WiRmGU3g626jA2sVbjbG+V43d317D9z9Pysc//vHizRVHpzIZSaT6HVs9Tt3H665huJ/nweQP4r5NF8+3C1S74PUw8cewtlhHMZQqE3Y3kmdtGMpT2bSfm7EYb3mM53j1WO1jEqnqPHUIkfrOd76zeEHnh4m+lulCu1wMx3IYEBSEjPpZOauHp1K8t8/J/ej9v1+Mx4aIP8P9Or5sVbhLv89ZW6odFoJghMjEQedp0qAOiQ7fO97xjlLnOVeb++279vO6ff+9X9vFkerH9vcgdOOUU065l0i1jw21fOpvVuprK8wT1zpNNtTvtI9Tqb9b9+k3EakdFalWoTFxwhCgVWhMduDlYzgaHQH7hhmkQJFsuopUOSdNWHFjiUiVpJtKgImfEjfoc0MWKlKi1vX7n/hV0Rpq5Ll1bMMbfrfuZx9DD+LWDHEY1lpjjTWKx8DxPHyGRXgSVDYENk+uB9nnbqtr6MoDUCH6YQJKb8xP1861axgaZi+GxNiMTpIQE42MjhW7URnXchyW8hxvFTbe8hjP8UY6lgZPqIF6QqdVw28YOsw/7XugriNg1JnqW/UqO1fvGklYcsklS93rnrRFymTTPke/3ft/vxiP/bJVdYn4Z+XHVvtJvcdEqnbP+ciiAh5KK7Bpj63gxlmjw64t1TGhMYwuaSN5MO2nXTRiRzSyjRqSx9mkrVR3qk+NVHIGKTOfeX6JZKNUwnW0y5wCyqjG/Lu3viN0qIYE0hGWUXYNz3jGM0pb7fdoB+dIABtlUebOz3HU2/apoT79tBl0VaTe/1/q/73zXk84YquILQahEXUzugKj9GCIPTNsz3AtkUgo8kz531+xMG6WilHuPuLTcpIM0+SHU089tRyHAfuOh8Oa3SpUv8E4vUdYeIAYJ2MwpMFo9WSVkc3DCA2coQ8hCIwfjl0ngniYPDgmVzgn7ytrx/PgeCA9PF0w/F7E4WlglAUx7XXvpvIZ6f1h39xTtqHc2BGbgIpVudYKud77Nl2zg4nEtY1nGy8jfbd3GwnPu3uiDmHfOpfuG0b7ThidWn/KbsCJoPOv7iP8iVMdeg09e0+dMX8beyTAODrUJRa06CfuNfEmHzYByOkjLtS5cvxo74QnSPNF+FlFT3upba0OIe/TGt43Our6bOLCvec3PJuuV5150kknFVEmNtdQP6eacCqvOaE4UbSnHCu0gHqX/Sk79a22mdD1u4SyCXREah3Z8r79lXENIyCmfYeAZtc6C+p054R+1hOulW7h7OLwqO1Lv5m6bmcHYdC8kBp34s+m19NrKPV/f+trwpQwZJxurIkbbrKeGeFKLJgc5GHzcPGIEqceGg8Ug2a4xKkHhxg28cNwLqP2fULYX7FWXjs/FTIBaz/i2vmavcnDyvA9dISvawvTD42xCkS4hOUkeaR5U3WCVJw6KmavV+88O1A5t7cwOegYeD41+Dwvns0wPqptqlfZLUHKjtkzu/Za489Dxe55zdSbtSPerpvD+OjtyHYFdRZhSiwSkOo27at6T13HRjhnOGm0o94nCNWNBCuBqq3VpvJUajcJX+9rIx1Lmy0Hr5FSdqSz43d9nx4AeyQoCWT7s8sKjyhvrjbbc+43OIuITcfz/BOoRpFpAr+t3eehlOXDOdMOxx57bLk+4jWMzFCLVEboYQCDWlDPI0NWmXpgDBWIq9EbNHThgfNgeejggTI0z3trq/kTHYP41dCJQyVy9ejEyEhf42HwYOhB8pjKAenzWnG7Ht7hiNTpj0abB9/QlFgtHRW9c578008/vVTIdXKEij1MLm2xVLcwftgpe2W36rCjjjqqDL2ycaFY6sc6SqT+DNMTHtWaqcPQv/qMcCTutIfaaW03UchBY/EMi1xoM6tn9ZWvfGXJfWyG/ste9rLmNa95TenwsC0dIKOgRKLPd9xxx2aXXXYpseQyfRCQ9dltd57q6zY8pkZMtPHqX/MsDJfLcax9J4iJUGL3Xe96V2nnt9xyy/JXm07oEso+DyMz1CIV1QAnohHXu/KAEKof/OAHy8Pznve8p6z8wfvJa1uNUegDUTljxoziVic4eEuJy7HOxWdErIfWQ2xileThRIqgb+fAo+tBn4hrCt1HRali1VFR2ap49e7333//5rOf/WzJ+1k7YyF0FQ32F77whZIcn1jV0d9tt92KXeuch+kPcejeG85/y1ve0uy3337FG2lynMUyOJMqRKDh/5piS9tnGJ83k1j0PoxG8mwakdQGE7L21ebq9DimNtiwu0U+1KVtRhKn44VTigdWqACBrYMFwtZomHrZ9aZ+Hp2hFqkeCIbsL1c8AbkgHsjqsjfMwK0vLk18h0BqvTVDs+Kp/J7Nw+Ph8NpD5nXvA+EztN/ncfDa0Iff4GmwSc8hXtbkLyK4fjdML6r91PvrL8+SSlhjrjJkaxK/swuxVibzSNtj2EvvXgembWdh4mjfn7qF/0RHWmgTb6llY8UNsl8eJiNQ6jZ1KdFQ68kwvVEnaZO1ZSZOSefGK2rRBiOUOuQVbVwdAQV70garC31mXzbjc+957fhEr817OvN1P/9rk/1t01tPjqfudDybtpqmaJ8T6m8hdfHYDLVIZbwacb0aPSxDAQy9wrh4QMfrlWR0jqVHZqUaaShUuISjYXmzEn1eqYZsw0iG2v6sfq4HyMj1Ai3PKCzAJoOCoQQPuH3qwxuGB5WgSl6MFfsTcqJyZzu8DGKWhQIkDipMNbUOY3c6SzpNBCqhCiNJPFmGS3nCNOrqsFoHhukP+9COVscObzqnC09oFY+1XattZ7UrXkrtHgGq3SYQoR3XMeetJGo5iuyrTeeYsj/YpTkiVQM4ts4R2iOc3he+55iV3nNBPSfny1tq//qZc/Fb6mt2nk7Y6Ay1imEgdR1oxqrCNFRPsFbRaqiUMVXvZdsAK/V9XgCCwLEIVQKYWOBV5RHg+dRzq/u3t0r7f8bNyA3t8/Sa6eoBchxeMw8kQSIWx+Z3nEM7piYMH+4921Hxaewl6tZZYue8qoSqCQfEAdtmX9W+Q5gMNPLqRR0ls61NhjLB1BA/AaKDLbZafL3h2mrDNq/bW5je1LpLW9m2gUr7//b7QudqyJywO0P6QuN0iMSgOqZhdx567aT23xwQn4tT1d6b3V8nTlUBSdgSmTQB+7W/Tr72uF1nOl9C1xC/zXF810bUiok1odUxfN8zQDCbaFW9quE/GdoUVBWCjtEL1J49e/Y9BmgCitn38qISgMSi9xmaNboZFqM2c49HU3yJ98SD1ln7rt8+YkelnDIMS2ASB0SCNCqCrZ2DnpWHipeL90tmAILU+QgeZ/QeCA+OSt35eqD8vp6gc5Pzznt6fASyfbuGclWxuAYVykikIZpY2Df7VTHz8KvM2aXJKbXyJgzsk7IPk4EGW92pfjMrW91mQQp1qTqw15MUO5xctBHuiXqAiNLG9RNtG5uQgkr7qG00ItiL/egJHW3tm3ZSWwJCj7eS8JT8X5vqNXvT/vLI2jhzdMpNnJIFQJut3RQH63/w5MoMAHWkz3WuCFU6QWffuej4yzjR3k/Hy/HZtPZe54xodk48vBxhXmvXPQNCGTix1NP9pKspqIZWpKoE68aQeJxUlgSf89Yj8uBuvfXWZZheI+46YDhKQy8g2oMgpxpj5T2taS9UAIxaz4nxiRE0O9FxfM/xeXH16jxcju0937MvkclI/A7DZugeSp4Gv+Hc9Ap9h0AlcIkM5Sx/oIqnXl+XiEidGuq9r2XpLzs0ZKYC4uFn83ryhAPByjPApjynuQdhQSCCNOLqLjlOLSWtgW9nIiEW1Ifqtba91i1MHl0SqewEhJ08o2yC+FQ/9VL3ZUtGLbWhNYSOzWjLCVzXpO21n9dGkjbeeOPS3hqB9Bu+6zscQP5q54VI6cxrR+2rzmSnbJQ3VDusfSag/Y561F+oV+3nGuzrGNpqTizX4lg8tjyp2nXaQpietpAXFv20+66K1KFfccrl2/TiDKlLB8HANOYMzA1j0D4nXnkwiU3D7Pb3v4bevkSiB40hm0HIGIlPD47jMH7GyBg8QEQt76uHxvcMKejJ1eEIFYnfVY5+28PmwXI8xlyHznQE4HgMntConol+Gv1IaKw8rGZlqohGomvnPN2oNq+Dw+YMO2mswIaEkqiY2ZHX7lcIY1FtCrxZRoB0nHV81Kc65oSQulOjXYVppX63kjpgctHeEEw8ep5zIUH9ol0faU/VSdpUdVAv9tMu8layIe2uOqr9WbU/dRrtQcSyPW1qjWu1n88cR/upXdbu2tf/2ljHruelXXZu2nMOqeps0s5yKEFbzQvsd5UvZxUx6jfty5mkzB3D9RG3fsfn1d77afeukYc6y6J2EEUwUjG0Daf38/qd9j69+3kQKiN9jvb325/V/+tW32sLht5jjUQ9fleISO0/1W7atsXjYLhKBes93lQVqApYZer/iNVQadc9ta7SEGvINXaEqVEmaOyNNumQa9SJi9BfuiRS0a6L2NNIbUDb5tr7Vnrfa+8/0vFGQ7tdz6F9rLrVerAev/1/3ep36z71OOg9Jur+/aSrIjWtzr+oBtLeGF59XfdpU/epW3u/uo32eS/tz+pW/x/pGJXe/1G/X7cQemnbR7UtQ2fiVSWZNoGFl95qKBJpE66GsHgoNG61Yg3DDTvgFWIXhvV5kayEpyPKi2pI3+xscXdGeHR0IlDDaLTrpftipP3a37f1tp2922jU/dvU74x0rEr9v/393n3a1H1H+r3w/0SkhhAKKkuhJ4aorNLy2te+tgzPfuMb3yjrV+tlEyLtEYIwvOiw6MyYmHLooYc2c+bMKcOl73//+8uiEnUeQhrgEMJ/S0TqPGqPp24jMb+Vbe8xR9vui7H2bX820uchjEbbXqr98HSJkTLUL/bKBIFNNtmkzIoVSy3bBcEq5ksYT7yqw0X1nuqs8LJ/5CMfKcPGhvNNOuGNl8VEbLMOT9vzFMJoVBsZy05G26f9fu9nY9H7vZG2Nr3vjbXPWFuYPyJS55OJMLgF/X4IE0XbFns3MUkmuRAgMkbwjMnIIPawrqt9+eWXF5HSDgPwN+J1+uBemjxiEpRUOlLdmWznf2EiZi6bJMLrLpbNBNK2OLWFMJHEtoaHiNQQwqhoBHhXCVarAW277bbNrFmzSmYLEyOlFLPghfyA4laJ1TB9ENphEpRZ0BdccEG513Iz86rLJbnXXns1z3nOc4rnlJ1EOIQQJpKI1BDCuCA+hAFYuGLXXXctmxjEE088sXn3u9/dXHbZZWUCDWFTvanxqg4W7XvmPpqhb+GRj3/848373ve+knrP0suWrCROR/Ka1i2EEBaUiNQQwnzDa0agWC1l3333bXbfffcyFPyVr3ylOfroo8twsHzBmWQ1WBCnOhq85F//+tfLTH2paTbffPPyWiL+mu85hBAmm4jUEMJ8UT1lhCpPqglWVmGR+5aX1Yxu3rfPfe5zRawKAyBWI1i7jbhT3nCT42R0MPFJLmNhHnXFPEnIeydEtbcQQphIIlJDCAsEr5pE7auttlqz1lprFWFj4Y4at0qo8rJaZc3wccIBuoFyl+PUQg7uj/vkfkkrJQbZEqY6HmJPTZCqMafoFaejbSGEsCBEpIYQFpgqSgjWFVZYoaxLvc8++5QVhkyusrKNjABWtSJeLSHYFqcRqlOHstZRMDvfUP6FF15Ycp2eccYZxUO61VZblRy5POTE6n2JzQjSEMJkEZEaQphwDAlbbtFyyOJVn/e85zU33HBDET/ya8qzGvqHeOHZs2c3+++/f3PmmWeWWFP3SeypZXCr8Iz4DCH0k4jUEMKEUsVNnVz18Ic/vHjlLLdKpHqPZ/Woo44qAsnwMs9qDQMIE48E/PLZnnvuufdMbhM7LKWY1cWWW265El/s3vB+t0WqLYQQ+kFEaghhUqgCxxDyIossUlYiWnfddcua7kSRoeQbb7yxTNQ566yzSsxqJldNLMrzjjvuKJ2Ck046qcSc6jSIMRVrakUxizU87GEPu1ee07qFEEI/iUgNIUwJllslhogiqavk2bSC1fXXX19mlV9xxRUlZlUogDRI7VWswn2jrGy8pnfeeWdz0003lfK00IK44J///Oel/JX9euutV+7DjBkzxjUhKoQQ+kFEaghhyiGMCFSe1Q984APFu3rVVVeVEIBvfvOb5bWJPVWoRqzeN8qI55TAJ05PO+205sgjj2xOPfXU4jXde++9mx122KEM6xvSDyGErhORGkLoG8SqYX+pjnbaaaeyLb/88iVx/Gc/+9myTnyWWh0f8pwKn/joRz/aHH744UWwijfdbbfdSvlaujRe0RDCIBGRGkKYctpDyYSqYWi5VpdZZpkyDC0rALE6d+7c5rjjjmu+/e1vN9ddd909y66Gf3tOTTiTRur0009vjj/++Obss88u8b6zZs0q4RRLLrlkWSFK+WZCVAhh0IhIDSFMGb0iqW4wwcqMc6mrxEya1LP00ksXMXb77beXyVUmAF1zzTXNX//616EOASBOTTQ75ZRTyoz9mtLLpCjpvmbOnFkyKshb214dKoQQBomI1BBCX2iL1F4BRVzJBiB/p9ydluU08YdIPf/880vOVSmVzFw3zE2wtrfphmsS9sCTfOutt5aysELUnDlzymveU+W06aabFnHKcxpRGkIYdCJSQwidhneVYH3zm9/c7LLLLiVLwJe+9KXmkEMOaS644IIi2qZ7CECdEGV1KJOhxJzyKO+5555lZS9eZwsohBDCdCIiNYTQOdreVX8NWfMOWg1p/fXXL2J1o402ai6//PIyweqII44oIQHSL2E6eVYtI2vRg7e+9a3Fe2pN/Ze+9KVl6dkVV1yxDPET7rXMarmFEMKgE5EaQugUbbHVFlyEqkwAj3nMY8qQNoG22mqrlQlWd999dwkF+M53vlNyrv72t78tgpUHctCEas1z+qMf/aisqW8ylJynT3nKU0qqrpVWWqmI9WWXXbYIdwIV7fJql199L4QQBo2I1BDCwEGwPvShDy2ThDbeeOOSEcBw+K9//esi7oQBXHnllWWNeqJvEISq83MNZuufccYZ5TrEm7oGK0TtuOOOzTrrrFNeu/46IaqXXoFatxBCGDQiUkMIA0NbnNmkVZINYK211mp23nnnZvvtty/eU0uAWhhACqvbbruteFp7J1h1AedhQtRdd91VBKrVt04++eTmU5/6VBHXJo69+MUvLn+l6DKhLIIzhDAsRKSGEKYNJg+Z5f6a17ymTCay2pIJVmbB81BWodoVpJKSPsr5HXjggSXfKdH9mc98ptlss82K1zSEEIaViNQQwkDT9ixaGOARj3hEiVOVtmrDDTcsOVcJU8nuiT9ilWe1n2JVnldLv86ePbv5/Oc/X67BqlDOVxJ+2QxcR5YvDSEMMxGpIYRpA7EnHGDhhRcuE6xWXnnlsm69GfH+57m84oorSq5VM+UlxK+TqyYbwvSWW25pLrnkkpKA33nI8+q8TAJ7+tOfXs53qaWWKh7hdlhDCCEMIxGpIYSBp4q53o3QE8e56qqrNttuu20JBSBUr7766iIWv//97xexKM1TXcWqbguKYxDAYksdX17Tiy66qLn44ovLbwo94O2V63SVVVYpM/UrvdcRQgjDSERqCGFaMJawI1blE+WpNEt+7733LqmcxKzuscceJQ+pCVYTCZFqUpTQAsf/9Kc/3Rx22GEljdSuu+5azoNIlaVAmEI9597rGG0LIYTpTkRqCGHoICB5L02wet/73ldm1h9zzDFFRJ5zzjkl7ROByRM6XqoH1vb73/++ufTSS8vxrI5loQFe3Pe85z0l9EC+1xBCCGMTkRpCGEp4Vi0KsOaaazarr756iV1dbLHFSn5SKaDEjdZFAe4LwpSgJW7PO++8MiHqrLPOah7/+McXj61FB/yGhPyG9XlOQwghjE1Eaghh6KhD5mbPL7rooiUMQK5VQ/HykZrgdO2115ZlV2tS/T//+c//4VmtwvTGG28sK13xnpq1T9wussgizRprrFGOy2trglRm64cQwviJSA0hDDVVsIpbXXrppcua+G9/+9tLjlKrVp122mllaVKiVdyqCVbEqXAA/3tftgBLsvKiLr744s12223X7LLLLs0SSyzRLLTQQvfEnPZuIYQQRiciNYQQWlgLnzdVftXddtut2WKLLUpM6Rvf+Mbm0EMPLXlWCdVbb721/C80gFDdaaedmle96lUl16l19eua+iGEEP477ve/gqkmiR//+MdlqEzKFxW95NRhuDnooIOKx0rCcrF66PUoxcMUuoQlS+VTlUJKXlP1mfRRNb3VjBkziiiVgL8O58emQ5cxCnDTTTeVuGkrnOmQheFG51u2E0swG1HqyuTOSRWphsrkBVTBz5w58155AMNwctxxxxUv1axZsyJSw0CgirSJSRV7qnGXDYAgXWaZZUojbxLWWHYbmw5dgkjVLp9wwgll4Qip0MJwwx7E1At3Wm655YZDpF533XUlWTaxytPA65DKeriRxHyFFVYoIpXnaSRiI6GrVMFaJ1C185uGMCgQqcJVpF0TysJzNolSIAwAd955Z7GF7bffvqx6Z9W+LjCpIpW3gddh7ty5896JABl2NO7S8uipmf0cwiDSrjZTp4VBg/2Kq/7JT35SMlGwYe9NohwIHUf4koVFapq8rsTUT6pI1VuzeRhCAHMzTMqrnoklYVBpV5sRqWHQYL82ISza6Dax5+GFUJWNxN+u2MGkitR66Bh9qLTNLXYRQgj9Y6TmP/Vy6BKTKlJDCCGE0F16JUBEaugSEakhhBBCCKFzJJl/CCGEEELoHBGpIYQQQgihc0SkhhBCCCGEzhGRGkIIIYQQOkdEagghhBBC6BwRqSGEEEIIoXNEpIYQQgghhM4RkRpCCCGEEDpHRGoIIYQQQugYTfN/cwQ/I+IQykAAAAAASUVORK5CYII=;" parent="1" vertex="1">
          <mxGeometry x="73" y="-560" width="681" height="128" as="geometry" />
        </mxCell>
        <mxCell id="ntNYW90rxtzkvmFBTzZF-2" value="ID_Cliente(PK)&lt;br style=&quot;border-color: var(--border-color);&quot;&gt;Nome_Cliente&lt;br style=&quot;border-color: var(--border-color);&quot;&gt;Sobrenome_Cliente&lt;br&gt;Email_Cliente&lt;br style=&quot;border-color: var(--border-color);&quot;&gt;EndereÃ§o_Cliente&lt;br style=&quot;border-color: var(--border-color);&quot;&gt;RG_Cliente&lt;br style=&quot;border-color: var(--border-color);&quot;&gt;CPF_Cliente&lt;br style=&quot;border-color: var(--border-color);&quot;&gt;Telefone_Cliente&lt;br style=&quot;border-color: var(--border-color);&quot;&gt;Cidade_Cliente&lt;br style=&quot;border-color: var(--border-color);&quot;&gt;CEP_Cliente&lt;br style=&quot;border-color: var(--border-color);&quot;&gt;Bairro_Cliente&lt;br style=&quot;border-color: var(--border-color);&quot;&gt;Categoria_Cliente" style="whiteSpace=wrap;html=1;aspect=fixed;" parent="1" vertex="1">
          <mxGeometry x="80" y="-380" width="190" height="190" as="geometry" />
        </mxCell>
        <mxCell id="ntNYW90rxtzkvmFBTzZF-4" value="&lt;b&gt;CLIENTE&lt;/b&gt;" style="rounded=0;whiteSpace=wrap;html=1;" parent="1" vertex="1">
          <mxGeometry x="80" y="-420" width="190" height="40" as="geometry" />
        </mxCell>
        <mxCell id="ntNYW90rxtzkvmFBTzZF-7" value="1" style="whiteSpace=wrap;html=1;aspect=fixed;" parent="1" vertex="1">
          <mxGeometry x="239" y="-541" width="40" height="40" as="geometry" />
        </mxCell>
        <mxCell id="ntNYW90rxtzkvmFBTzZF-8" value="N" style="whiteSpace=wrap;html=1;aspect=fixed;" parent="1" vertex="1">
          <mxGeometry x="539" y="-540" width="40" height="40" as="geometry" />
        </mxCell>
        <mxCell id="mJF7_8WblRUuJvkEzuNc-1" value="ID_Produto(PK)&lt;br&gt;Nome_Produto&lt;br&gt;Fornecedor_Produto&lt;br&gt;ID_Cliente(FK)&lt;br&gt;ID_Compra(FK)" style="whiteSpace=wrap;html=1;aspect=fixed;" parent="1" vertex="1">
          <mxGeometry x="539" y="-380" width="190" height="190" as="geometry" />
        </mxCell>
        <mxCell id="mJF7_8WblRUuJvkEzuNc-2" value="&lt;b&gt;PRODUTO&lt;/b&gt;" style="rounded=0;whiteSpace=wrap;html=1;" parent="1" vertex="1">
          <mxGeometry x="539" y="-420" width="190" height="40" as="geometry" />
        </mxCell>
        <mxCell id="79VdX6PlBx0-mZV0DKSR-1" value="ID_Compra(PK)&lt;br&gt;DataCompra_Produto&lt;br&gt;FormaPgto_Compra&lt;br&gt;ID_Cliente(FK)" style="whiteSpace=wrap;html=1;aspect=fixed;" parent="1" vertex="1">
          <mxGeometry x="319" y="-380" width="190" height="190" as="geometry" />
        </mxCell>
        <mxCell id="79VdX6PlBx0-mZV0DKSR-2" value="&lt;b&gt;COMPRA&lt;/b&gt;" style="rounded=0;whiteSpace=wrap;html=1;" parent="1" vertex="1">
          <mxGeometry x="319" y="-420" width="190" height="40" as="geometry" />
        </mxCell>
      </root>
    </mxGraphModel>
  </diagram>
  <diagram id="LIhgqNur4nf_sjPCgP51" name="PÃ¡gina-3">
    <mxGraphModel dx="1354" dy="718" grid="1" gridSize="10" guides="1" tooltips="1" connect="1" arrows="1" fold="1" page="1" pageScale="1" pageWidth="827" pageHeight="1169" math="0" shadow="0">
      <root>
        <mxCell id="0" />
        <mxCell id="1" parent="0" />
        <mxCell id="ZSp-w41taWfEvgXMvr-u-2" value="&lt;b&gt;Cliente&lt;/b&gt;" style="rounded=0;whiteSpace=wrap;html=1;" parent="1" vertex="1">
          <mxGeometry x="80" y="80" width="160" height="80" as="geometry" />
        </mxCell>
        <mxCell id="ZSp-w41taWfEvgXMvr-u-3" value="" style="endArrow=classic;html=1;rounded=0;exitX=1;exitY=0.5;exitDx=0;exitDy=0;" parent="1" source="ZSp-w41taWfEvgXMvr-u-2" edge="1">
          <mxGeometry width="50" height="50" relative="1" as="geometry">
            <mxPoint x="390" y="330" as="sourcePoint" />
            <mxPoint x="320" y="120" as="targetPoint" />
          </mxGeometry>
        </mxCell>
        <mxCell id="ZSp-w41taWfEvgXMvr-u-4" value="&lt;b&gt;LocaÃ§Ã£o&lt;/b&gt;" style="rhombus;whiteSpace=wrap;html=1;" parent="1" vertex="1">
          <mxGeometry x="320" y="80" width="160" height="80" as="geometry" />
        </mxCell>
        <mxCell id="ZSp-w41taWfEvgXMvr-u-5" value="" style="endArrow=classic;html=1;rounded=0;exitX=1;exitY=0.5;exitDx=0;exitDy=0;" parent="1" source="ZSp-w41taWfEvgXMvr-u-4" edge="1">
          <mxGeometry width="50" height="50" relative="1" as="geometry">
            <mxPoint x="390" y="330" as="sourcePoint" />
            <mxPoint x="560" y="120" as="targetPoint" />
          </mxGeometry>
        </mxCell>
        <mxCell id="ZSp-w41taWfEvgXMvr-u-6" value="&lt;b&gt;Produtos&lt;/b&gt;" style="rounded=0;whiteSpace=wrap;html=1;" parent="1" vertex="1">
          <mxGeometry x="560" y="80" width="160" height="80" as="geometry" />
        </mxCell>
        <mxCell id="UbTXZcqu9vtHdCCFUnT9-1" value="1" style="whiteSpace=wrap;html=1;aspect=fixed;" parent="1" vertex="1">
          <mxGeometry x="260" y="70" width="40" height="40" as="geometry" />
        </mxCell>
        <mxCell id="UbTXZcqu9vtHdCCFUnT9-2" value="N" style="whiteSpace=wrap;html=1;aspect=fixed;" parent="1" vertex="1">
          <mxGeometry x="500" y="70" width="40" height="40" as="geometry" />
        </mxCell>
        <mxCell id="WhE5-2pYlaqjAQihDtSe-1" value="ID_Cliente(PK)&lt;br style=&quot;border-color: var(--border-color);&quot;&gt;Nome_Cliente&lt;br style=&quot;border-color: var(--border-color);&quot;&gt;Sobrenome_Cliente&lt;br&gt;Email_Cliente&lt;br style=&quot;border-color: var(--border-color);&quot;&gt;EndereÃ§o_Cliente&lt;br style=&quot;border-color: var(--border-color);&quot;&gt;RG_Cliente&lt;br style=&quot;border-color: var(--border-color);&quot;&gt;CPF_Cliente&lt;br style=&quot;border-color: var(--border-color);&quot;&gt;Telefone_Cliente&lt;br style=&quot;border-color: var(--border-color);&quot;&gt;Cidade_Cliente&lt;br style=&quot;border-color: var(--border-color);&quot;&gt;CEP_Cliente&lt;br style=&quot;border-color: var(--border-color);&quot;&gt;Bairro_Cliente&lt;br style=&quot;border-color: var(--border-color);&quot;&gt;Categoria_Cliente" style="whiteSpace=wrap;html=1;aspect=fixed;" parent="1" vertex="1">
          <mxGeometry x="71" y="240" width="190" height="190" as="geometry" />
        </mxCell>
        <mxCell id="WhE5-2pYlaqjAQihDtSe-2" value="&lt;b&gt;CLIENTE&lt;/b&gt;" style="rounded=0;whiteSpace=wrap;html=1;" parent="1" vertex="1">
          <mxGeometry x="71" y="200" width="190" height="40" as="geometry" />
        </mxCell>
        <mxCell id="WhE5-2pYlaqjAQihDtSe-3" value="ID_Produto(PK)&lt;br&gt;Nome_Produto&lt;br&gt;Fornecedor_Produto&lt;br&gt;ID_Cliente(FK)&lt;br&gt;ID_Locacao(FK)" style="whiteSpace=wrap;html=1;aspect=fixed;" parent="1" vertex="1">
          <mxGeometry x="530" y="240" width="190" height="190" as="geometry" />
        </mxCell>
        <mxCell id="WhE5-2pYlaqjAQihDtSe-4" value="&lt;b&gt;PRODUTO&lt;/b&gt;" style="rounded=0;whiteSpace=wrap;html=1;" parent="1" vertex="1">
          <mxGeometry x="530" y="200" width="190" height="40" as="geometry" />
        </mxCell>
        <mxCell id="WhE5-2pYlaqjAQihDtSe-5" value="ID_Locacao(PK)&lt;br&gt;ID_Produto(FK)&lt;br&gt;ID_Cliente(FK)" style="whiteSpace=wrap;html=1;aspect=fixed;" parent="1" vertex="1">
          <mxGeometry x="300" y="240" width="190" height="190" as="geometry" />
        </mxCell>
        <mxCell id="WhE5-2pYlaqjAQihDtSe-6" value="&lt;b&gt;LOCACAO&lt;/b&gt;" style="rounded=0;whiteSpace=wrap;html=1;" parent="1" vertex="1">
          <mxGeometry x="300" y="200" width="190" height="40" as="geometry" />
        </mxCell>
        <mxCell id="WhE5-2pYlaqjAQihDtSe-7" value="&lt;b&gt;Vaga&lt;/b&gt;" style="rounded=0;whiteSpace=wrap;html=1;" parent="1" vertex="1">
          <mxGeometry x="79.5" y="470" width="160" height="80" as="geometry" />
        </mxCell>
        <mxCell id="WhE5-2pYlaqjAQihDtSe-8" value="" style="endArrow=classic;html=1;rounded=0;exitX=1;exitY=0.5;exitDx=0;exitDy=0;" parent="1" source="WhE5-2pYlaqjAQihDtSe-7" edge="1">
          <mxGeometry width="50" height="50" relative="1" as="geometry">
            <mxPoint x="389.5" y="720" as="sourcePoint" />
            <mxPoint x="319.5" y="510" as="targetPoint" />
          </mxGeometry>
        </mxCell>
        <mxCell id="WhE5-2pYlaqjAQihDtSe-21" value="" style="edgeStyle=none;rounded=0;orthogonalLoop=1;jettySize=auto;html=1;" parent="1" source="WhE5-2pYlaqjAQihDtSe-9" target="WhE5-2pYlaqjAQihDtSe-20" edge="1">
          <mxGeometry relative="1" as="geometry" />
        </mxCell>
        <mxCell id="WhE5-2pYlaqjAQihDtSe-9" value="&lt;b&gt;garagem&lt;/b&gt;" style="rhombus;whiteSpace=wrap;html=1;" parent="1" vertex="1">
          <mxGeometry x="319.5" y="470" width="160" height="80" as="geometry" />
        </mxCell>
        <mxCell id="WhE5-2pYlaqjAQihDtSe-10" value="" style="endArrow=classic;html=1;rounded=0;exitX=1;exitY=0.5;exitDx=0;exitDy=0;" parent="1" source="WhE5-2pYlaqjAQihDtSe-9" edge="1">
          <mxGeometry width="50" height="50" relative="1" as="geometry">
            <mxPoint x="389.5" y="720" as="sourcePoint" />
            <mxPoint x="559.5" y="510" as="targetPoint" />
          </mxGeometry>
        </mxCell>
        <mxCell id="WhE5-2pYlaqjAQihDtSe-11" value="&lt;b&gt;APARTAMENTO&lt;/b&gt;" style="rounded=0;whiteSpace=wrap;html=1;" parent="1" vertex="1">
          <mxGeometry x="559.5" y="470" width="160" height="80" as="geometry" />
        </mxCell>
        <mxCell id="WhE5-2pYlaqjAQihDtSe-12" value="1" style="whiteSpace=wrap;html=1;aspect=fixed;" parent="1" vertex="1">
          <mxGeometry x="259.5" y="460" width="40" height="40" as="geometry" />
        </mxCell>
        <mxCell id="WhE5-2pYlaqjAQihDtSe-13" value="1" style="whiteSpace=wrap;html=1;aspect=fixed;" parent="1" vertex="1">
          <mxGeometry x="499.5" y="460" width="40" height="40" as="geometry" />
        </mxCell>
        <mxCell id="WhE5-2pYlaqjAQihDtSe-14" value="ID_vaga(PK)&lt;br&gt;ID_Apartamento(FK)" style="whiteSpace=wrap;html=1;aspect=fixed;" parent="1" vertex="1">
          <mxGeometry x="70.5" y="630" width="190" height="190" as="geometry" />
        </mxCell>
        <mxCell id="WhE5-2pYlaqjAQihDtSe-15" value="&lt;b&gt;VAGA&lt;/b&gt;" style="rounded=0;whiteSpace=wrap;html=1;" parent="1" vertex="1">
          <mxGeometry x="70.5" y="590" width="190" height="40" as="geometry" />
        </mxCell>
        <mxCell id="WhE5-2pYlaqjAQihDtSe-16" value="ID_Apartamento(PK)&lt;br&gt;Nro_Apartamento&lt;br&gt;Bloco_Apartamento" style="whiteSpace=wrap;html=1;aspect=fixed;" parent="1" vertex="1">
          <mxGeometry x="529.5" y="630" width="190" height="190" as="geometry" />
        </mxCell>
        <mxCell id="WhE5-2pYlaqjAQihDtSe-17" value="&lt;b&gt;APARTAMENTO&lt;/b&gt;" style="rounded=0;whiteSpace=wrap;html=1;" parent="1" vertex="1">
          <mxGeometry x="529.5" y="590" width="190" height="40" as="geometry" />
        </mxCell>
        <mxCell id="WhE5-2pYlaqjAQihDtSe-20" value="&lt;b&gt;garagem&lt;/b&gt;" style="rhombus;whiteSpace=wrap;html=1;" parent="1" vertex="1">
          <mxGeometry x="559.5" y="470" width="160" height="80" as="geometry" />
        </mxCell>
        <mxCell id="WhE5-2pYlaqjAQihDtSe-22" value="&lt;b&gt;Funcionario&lt;/b&gt;" style="rounded=0;whiteSpace=wrap;html=1;" parent="1" vertex="1">
          <mxGeometry x="79.5" y="850" width="160" height="80" as="geometry" />
        </mxCell>
        <mxCell id="WhE5-2pYlaqjAQihDtSe-23" value="" style="endArrow=classic;html=1;rounded=0;exitX=1;exitY=0.5;exitDx=0;exitDy=0;" parent="1" source="WhE5-2pYlaqjAQihDtSe-22" edge="1">
          <mxGeometry width="50" height="50" relative="1" as="geometry">
            <mxPoint x="389.5" y="1100" as="sourcePoint" />
            <mxPoint x="319.5" y="890" as="targetPoint" />
          </mxGeometry>
        </mxCell>
        <mxCell id="WhE5-2pYlaqjAQihDtSe-24" value="&lt;b&gt;Empresa&lt;/b&gt;" style="rhombus;whiteSpace=wrap;html=1;" parent="1" vertex="1">
          <mxGeometry x="319.5" y="850" width="160" height="80" as="geometry" />
        </mxCell>
        <mxCell id="WhE5-2pYlaqjAQihDtSe-25" value="" style="endArrow=classic;html=1;rounded=0;exitX=1;exitY=0.5;exitDx=0;exitDy=0;" parent="1" source="WhE5-2pYlaqjAQihDtSe-24" edge="1">
          <mxGeometry width="50" height="50" relative="1" as="geometry">
            <mxPoint x="389.5" y="1100" as="sourcePoint" />
            <mxPoint x="559.5" y="890" as="targetPoint" />
          </mxGeometry>
        </mxCell>
        <mxCell id="WhE5-2pYlaqjAQihDtSe-26" value="1" style="whiteSpace=wrap;html=1;aspect=fixed;" parent="1" vertex="1">
          <mxGeometry x="259.5" y="840" width="40" height="40" as="geometry" />
        </mxCell>
        <mxCell id="WhE5-2pYlaqjAQihDtSe-27" value="N" style="whiteSpace=wrap;html=1;aspect=fixed;" parent="1" vertex="1">
          <mxGeometry x="499.5" y="840" width="40" height="40" as="geometry" />
        </mxCell>
        <mxCell id="WhE5-2pYlaqjAQihDtSe-28" value="ID_Funcionario(PK)&lt;br style=&quot;border-color: var(--border-color);&quot;&gt;Nome_Funcionario&lt;br style=&quot;border-color: var(--border-color);&quot;&gt;Sobrenome_Funcionario&lt;br style=&quot;border-color: var(--border-color);&quot;&gt;Email_Funcionario&lt;br style=&quot;border-color: var(--border-color);&quot;&gt;EndereÃ§o_Funcionario&lt;br style=&quot;border-color: var(--border-color);&quot;&gt;RG_Funcionario&lt;br style=&quot;border-color: var(--border-color);&quot;&gt;CPF_Funcionario&lt;br style=&quot;border-color: var(--border-color);&quot;&gt;Telefone_Funcionario&lt;br style=&quot;border-color: var(--border-color);&quot;&gt;Cidade_Funcionario&lt;br style=&quot;border-color: var(--border-color);&quot;&gt;CEP_Funcionario&lt;br style=&quot;border-color: var(--border-color);&quot;&gt;Bairro_Funcionario&lt;br style=&quot;border-color: var(--border-color);&quot;&gt;Categoria_Funcionario&lt;br&gt;Depart_Funcionario&lt;br&gt;Cargo_Funcionario&lt;br&gt;Salario_Funcionario&lt;br&gt;ID_Premiacao(PK)" style="whiteSpace=wrap;html=1;aspect=fixed;" parent="1" vertex="1">
          <mxGeometry x="70.5" y="1010" width="240" height="240" as="geometry" />
        </mxCell>
        <mxCell id="WhE5-2pYlaqjAQihDtSe-29" value="&lt;b&gt;Funcionario&lt;/b&gt;" style="rounded=0;whiteSpace=wrap;html=1;" parent="1" vertex="1">
          <mxGeometry x="70.5" y="970" width="239.5" height="40" as="geometry" />
        </mxCell>
        <mxCell id="WhE5-2pYlaqjAQihDtSe-30" value="ID_Premiacao(PK)&lt;br&gt;Valor_Premiacao&lt;br&gt;ID_Funcionario" style="whiteSpace=wrap;html=1;aspect=fixed;" parent="1" vertex="1">
          <mxGeometry x="529.5" y="1010" width="190" height="190" as="geometry" />
        </mxCell>
        <mxCell id="WhE5-2pYlaqjAQihDtSe-31" value="&lt;b&gt;APARTAMENTO&lt;/b&gt;" style="rounded=0;whiteSpace=wrap;html=1;" parent="1" vertex="1">
          <mxGeometry x="529.5" y="970" width="190" height="40" as="geometry" />
        </mxCell>
        <mxCell id="WhE5-2pYlaqjAQihDtSe-32" value="&lt;b&gt;PremiaÃ§Ã£o&lt;/b&gt;" style="rhombus;whiteSpace=wrap;html=1;" parent="1" vertex="1">
          <mxGeometry x="559.5" y="850" width="160" height="80" as="geometry" />
        </mxCell>
        <mxCell id="WhE5-2pYlaqjAQihDtSe-33" value="&lt;b&gt;ALUNO&lt;/b&gt;" style="rounded=0;whiteSpace=wrap;html=1;" parent="1" vertex="1">
          <mxGeometry x="84.5" y="1310" width="160" height="80" as="geometry" />
        </mxCell>
        <mxCell id="WhE5-2pYlaqjAQihDtSe-34" value="" style="endArrow=classic;html=1;rounded=0;exitX=1;exitY=0.5;exitDx=0;exitDy=0;" parent="1" source="WhE5-2pYlaqjAQihDtSe-33" edge="1">
          <mxGeometry width="50" height="50" relative="1" as="geometry">
            <mxPoint x="394.5" y="1560" as="sourcePoint" />
            <mxPoint x="324.5" y="1350" as="targetPoint" />
          </mxGeometry>
        </mxCell>
        <mxCell id="WhE5-2pYlaqjAQihDtSe-35" value="&lt;b&gt;ESCOLA&lt;/b&gt;" style="rhombus;whiteSpace=wrap;html=1;" parent="1" vertex="1">
          <mxGeometry x="324.5" y="1310" width="160" height="80" as="geometry" />
        </mxCell>
        <mxCell id="WhE5-2pYlaqjAQihDtSe-36" value="" style="endArrow=classic;html=1;rounded=0;exitX=1;exitY=0.5;exitDx=0;exitDy=0;" parent="1" source="WhE5-2pYlaqjAQihDtSe-35" edge="1">
          <mxGeometry width="50" height="50" relative="1" as="geometry">
            <mxPoint x="394.5" y="1560" as="sourcePoint" />
            <mxPoint x="564.5" y="1350" as="targetPoint" />
          </mxGeometry>
        </mxCell>
        <mxCell id="WhE5-2pYlaqjAQihDtSe-37" value="1" style="whiteSpace=wrap;html=1;aspect=fixed;" parent="1" vertex="1">
          <mxGeometry x="264.5" y="1300" width="40" height="40" as="geometry" />
        </mxCell>
        <mxCell id="WhE5-2pYlaqjAQihDtSe-38" value="1" style="whiteSpace=wrap;html=1;aspect=fixed;" parent="1" vertex="1">
          <mxGeometry x="504.5" y="1300" width="40" height="40" as="geometry" />
        </mxCell>
        <mxCell id="WhE5-2pYlaqjAQihDtSe-39" value="ID_Aluno(PK)&lt;br style=&quot;border-color: var(--border-color);&quot;&gt;Nome_Aluno&lt;br style=&quot;border-color: var(--border-color);&quot;&gt;Sobrenome_Aluno&lt;br style=&quot;border-color: var(--border-color);&quot;&gt;EndereÃ§o_Aluno&lt;br style=&quot;border-color: var(--border-color);&quot;&gt;RG_Aluno&lt;br style=&quot;border-color: var(--border-color);&quot;&gt;CPF_Aluno&lt;br style=&quot;border-color: var(--border-color);&quot;&gt;Telefone_Aluno&lt;br style=&quot;border-color: var(--border-color);&quot;&gt;Cidade_Aluno&lt;br style=&quot;border-color: var(--border-color);&quot;&gt;CEP_Aluno&lt;br style=&quot;border-color: var(--border-color);&quot;&gt;Bairro_Aluno&lt;br style=&quot;border-color: var(--border-color);&quot;&gt;Categoria_Aluno&lt;br&gt;Depart_Aluno&lt;br&gt;Cargo_Aluno&lt;br&gt;ID_SalaAula(FK)" style="whiteSpace=wrap;html=1;aspect=fixed;" parent="1" vertex="1">
          <mxGeometry x="75.5" y="1470" width="244.5" height="244.5" as="geometry" />
        </mxCell>
        <mxCell id="WhE5-2pYlaqjAQihDtSe-40" value="&lt;b&gt;ALUNO&lt;/b&gt;" style="rounded=0;whiteSpace=wrap;html=1;" parent="1" vertex="1">
          <mxGeometry x="75.5" y="1430" width="244.5" height="40" as="geometry" />
        </mxCell>
        <mxCell id="WhE5-2pYlaqjAQihDtSe-41" value="ID_SalaAula(PK)&lt;br&gt;ID_Aluno(FK)" style="whiteSpace=wrap;html=1;aspect=fixed;" parent="1" vertex="1">
          <mxGeometry x="534.5" y="1470" width="190" height="190" as="geometry" />
        </mxCell>
        <mxCell id="WhE5-2pYlaqjAQihDtSe-42" value="&lt;b&gt;SALA DE AULA&lt;/b&gt;" style="rounded=0;whiteSpace=wrap;html=1;" parent="1" vertex="1">
          <mxGeometry x="534.5" y="1430" width="190" height="40" as="geometry" />
        </mxCell>
        <mxCell id="WhE5-2pYlaqjAQihDtSe-43" value="&lt;b&gt;SALA DE AULA&lt;/b&gt;" style="rhombus;whiteSpace=wrap;html=1;" parent="1" vertex="1">
          <mxGeometry x="564.5" y="1310" width="160" height="80" as="geometry" />
        </mxCell>
      </root>
    </mxGraphModel>
  </diagram>
  <diagram id="8_0_tiLhkvVwai1LTm7K" name="PÃ¡gina-4">
    <mxGraphModel dx="1893" dy="1296" grid="0" gridSize="10" guides="1" tooltips="1" connect="1" arrows="1" fold="1" page="0" pageScale="1" pageWidth="827" pageHeight="1169" math="0" shadow="0">
      <root>
        <mxCell id="0" />
        <mxCell id="1" parent="0" />
        <mxCell id="eXeowy-1W0lOTfGpVI0h-1" value="Propriedade" style="swimlane;whiteSpace=wrap;html=1;fontSize=16;" vertex="1" parent="1">
          <mxGeometry x="-210" y="159" width="181" height="206" as="geometry" />
        </mxCell>
        <mxCell id="eXeowy-1W0lOTfGpVI0h-11" value="ID_Propriedade&lt;br&gt;Endereco&lt;br&gt;Telefone" style="text;html=1;strokeColor=none;fillColor=none;align=center;verticalAlign=middle;whiteSpace=wrap;rounded=0;fontSize=16;" vertex="1" parent="eXeowy-1W0lOTfGpVI0h-1">
          <mxGeometry x="22" y="54" width="137" height="30" as="geometry" />
        </mxCell>
        <mxCell id="eXeowy-1W0lOTfGpVI0h-4" value="Pessoa" style="swimlane;whiteSpace=wrap;html=1;fontSize=16;" vertex="1" parent="1">
          <mxGeometry x="-884" y="155" width="200" height="207" as="geometry" />
        </mxCell>
        <mxCell id="eXeowy-1W0lOTfGpVI0h-5" value="ID_Pessoa&lt;br&gt;Nome&lt;br&gt;CPF&lt;br&gt;EndereÃ§o&lt;br&gt;" style="text;html=1;align=center;verticalAlign=middle;resizable=0;points=[];autosize=1;strokeColor=none;fillColor=none;fontSize=16;" vertex="1" parent="eXeowy-1W0lOTfGpVI0h-4">
          <mxGeometry x="47" y="51" width="96" height="89" as="geometry" />
        </mxCell>
        <mxCell id="eXeowy-1W0lOTfGpVI0h-6" value="1" style="whiteSpace=wrap;html=1;aspect=fixed;fontSize=16;" vertex="1" parent="1">
          <mxGeometry x="-743" y="96" width="59" height="59" as="geometry" />
        </mxCell>
        <mxCell id="eXeowy-1W0lOTfGpVI0h-7" value="Aluguel" style="rhombus;whiteSpace=wrap;html=1;fontSize=16;" vertex="1" parent="1">
          <mxGeometry x="-505" y="85.5" width="117" height="80" as="geometry" />
        </mxCell>
        <mxCell id="eXeowy-1W0lOTfGpVI0h-8" value="" style="endArrow=none;html=1;rounded=0;fontSize=12;startSize=8;endSize=8;curved=1;exitX=1;exitY=0.5;exitDx=0;exitDy=0;entryX=0;entryY=0.5;entryDx=0;entryDy=0;" edge="1" parent="1" source="eXeowy-1W0lOTfGpVI0h-6" target="eXeowy-1W0lOTfGpVI0h-7">
          <mxGeometry width="50" height="50" relative="1" as="geometry">
            <mxPoint x="-650" y="250" as="sourcePoint" />
            <mxPoint x="-600" y="200" as="targetPoint" />
          </mxGeometry>
        </mxCell>
        <mxCell id="eXeowy-1W0lOTfGpVI0h-9" value="1" style="whiteSpace=wrap;html=1;aspect=fixed;fontSize=16;" vertex="1" parent="1">
          <mxGeometry x="-210" y="100" width="59" height="59" as="geometry" />
        </mxCell>
        <mxCell id="eXeowy-1W0lOTfGpVI0h-10" value="" style="endArrow=none;html=1;rounded=0;fontSize=12;startSize=8;endSize=8;curved=1;exitX=1;exitY=0.5;exitDx=0;exitDy=0;entryX=0;entryY=0.5;entryDx=0;entryDy=0;" edge="1" parent="1" source="eXeowy-1W0lOTfGpVI0h-7" target="eXeowy-1W0lOTfGpVI0h-9">
          <mxGeometry width="50" height="50" relative="1" as="geometry">
            <mxPoint x="-484" y="259" as="sourcePoint" />
            <mxPoint x="-434" y="209" as="targetPoint" />
          </mxGeometry>
        </mxCell>
        <mxCell id="eXeowy-1W0lOTfGpVI0h-20" value="1" style="whiteSpace=wrap;html=1;aspect=fixed;fontSize=16;" vertex="1" parent="1">
          <mxGeometry x="-741.75" y="362.75" width="57.75" height="57.75" as="geometry" />
        </mxCell>
        <mxCell id="eXeowy-1W0lOTfGpVI0h-21" value="Comprar" style="rhombus;whiteSpace=wrap;html=1;fontSize=16;" vertex="1" parent="1">
          <mxGeometry x="-505" y="351" width="117" height="80" as="geometry" />
        </mxCell>
        <mxCell id="eXeowy-1W0lOTfGpVI0h-22" value="" style="endArrow=none;html=1;rounded=0;fontSize=12;startSize=8;endSize=8;curved=1;exitX=1;exitY=0.5;exitDx=0;exitDy=0;entryX=0;entryY=0.5;entryDx=0;entryDy=0;" edge="1" parent="1" source="eXeowy-1W0lOTfGpVI0h-20" target="eXeowy-1W0lOTfGpVI0h-21">
          <mxGeometry width="50" height="50" relative="1" as="geometry">
            <mxPoint x="-650" y="515.5" as="sourcePoint" />
            <mxPoint x="-600" y="465.5" as="targetPoint" />
          </mxGeometry>
        </mxCell>
        <mxCell id="eXeowy-1W0lOTfGpVI0h-23" value="1" style="whiteSpace=wrap;html=1;aspect=fixed;fontSize=16;" vertex="1" parent="1">
          <mxGeometry x="-210" y="365.5" width="59" height="59" as="geometry" />
        </mxCell>
        <mxCell id="eXeowy-1W0lOTfGpVI0h-24" value="" style="endArrow=none;html=1;rounded=0;fontSize=12;startSize=8;endSize=8;curved=1;exitX=1;exitY=0.5;exitDx=0;exitDy=0;entryX=0;entryY=0.5;entryDx=0;entryDy=0;" edge="1" parent="1" source="eXeowy-1W0lOTfGpVI0h-21" target="eXeowy-1W0lOTfGpVI0h-23">
          <mxGeometry width="50" height="50" relative="1" as="geometry">
            <mxPoint x="-484" y="524.5" as="sourcePoint" />
            <mxPoint x="-434" y="474.5" as="targetPoint" />
          </mxGeometry>
        </mxCell>
        <mxCell id="eXeowy-1W0lOTfGpVI0h-25" value="Contrato" style="swimlane;fontStyle=0;childLayout=stackLayout;horizontal=1;startSize=30;horizontalStack=0;resizeParent=1;resizeParentMax=0;resizeLast=0;collapsible=1;marginBottom=0;whiteSpace=wrap;html=1;fontSize=16;" vertex="1" parent="1">
          <mxGeometry x="-516.5" y="496" width="151.5" height="120" as="geometry" />
        </mxCell>
        <mxCell id="eXeowy-1W0lOTfGpVI0h-26" value="ID_Contrato (PK)" style="text;strokeColor=none;fillColor=none;align=left;verticalAlign=middle;spacingLeft=4;spacingRight=4;overflow=hidden;points=[[0,0.5],[1,0.5]];portConstraint=eastwest;rotatable=0;whiteSpace=wrap;html=1;fontSize=16;" vertex="1" parent="eXeowy-1W0lOTfGpVI0h-25">
          <mxGeometry y="30" width="151.5" height="30" as="geometry" />
        </mxCell>
        <mxCell id="eXeowy-1W0lOTfGpVI0h-27" value="ID_Pessoa (FK)" style="text;strokeColor=none;fillColor=none;align=left;verticalAlign=middle;spacingLeft=4;spacingRight=4;overflow=hidden;points=[[0,0.5],[1,0.5]];portConstraint=eastwest;rotatable=0;whiteSpace=wrap;html=1;fontSize=16;" vertex="1" parent="eXeowy-1W0lOTfGpVI0h-25">
          <mxGeometry y="60" width="151.5" height="30" as="geometry" />
        </mxCell>
        <mxCell id="eXeowy-1W0lOTfGpVI0h-28" value="ID_Propriedade(FK)" style="text;strokeColor=none;fillColor=none;align=left;verticalAlign=middle;spacingLeft=4;spacingRight=4;overflow=hidden;points=[[0,0.5],[1,0.5]];portConstraint=eastwest;rotatable=0;whiteSpace=wrap;html=1;fontSize=16;" vertex="1" parent="eXeowy-1W0lOTfGpVI0h-25">
          <mxGeometry y="90" width="151.5" height="30" as="geometry" />
        </mxCell>
        <mxCell id="eXeowy-1W0lOTfGpVI0h-30" value="Aluguel" style="swimlane;fontStyle=0;childLayout=stackLayout;horizontal=1;startSize=30;horizontalStack=0;resizeParent=1;resizeParentMax=0;resizeLast=0;collapsible=1;marginBottom=0;whiteSpace=wrap;html=1;fontSize=16;" vertex="1" parent="1">
          <mxGeometry x="-528" y="-111" width="151.5" height="120" as="geometry" />
        </mxCell>
        <mxCell id="eXeowy-1W0lOTfGpVI0h-31" value="ID_Aluguel (PK)" style="text;strokeColor=none;fillColor=none;align=left;verticalAlign=middle;spacingLeft=4;spacingRight=4;overflow=hidden;points=[[0,0.5],[1,0.5]];portConstraint=eastwest;rotatable=0;whiteSpace=wrap;html=1;fontSize=16;" vertex="1" parent="eXeowy-1W0lOTfGpVI0h-30">
          <mxGeometry y="30" width="151.5" height="30" as="geometry" />
        </mxCell>
        <mxCell id="eXeowy-1W0lOTfGpVI0h-32" value="ID_Pessoa (FK)" style="text;strokeColor=none;fillColor=none;align=left;verticalAlign=middle;spacingLeft=4;spacingRight=4;overflow=hidden;points=[[0,0.5],[1,0.5]];portConstraint=eastwest;rotatable=0;whiteSpace=wrap;html=1;fontSize=16;" vertex="1" parent="eXeowy-1W0lOTfGpVI0h-30">
          <mxGeometry y="60" width="151.5" height="30" as="geometry" />
        </mxCell>
        <mxCell id="eXeowy-1W0lOTfGpVI0h-33" value="ID_Propriedade(FK)" style="text;strokeColor=none;fillColor=none;align=left;verticalAlign=middle;spacingLeft=4;spacingRight=4;overflow=hidden;points=[[0,0.5],[1,0.5]];portConstraint=eastwest;rotatable=0;whiteSpace=wrap;html=1;fontSize=16;" vertex="1" parent="eXeowy-1W0lOTfGpVI0h-30">
          <mxGeometry y="90" width="151.5" height="30" as="geometry" />
        </mxCell>
        <mxCell id="eXeowy-1W0lOTfGpVI0h-34" value="N" style="whiteSpace=wrap;html=1;aspect=fixed;fontSize=16;" vertex="1" parent="1">
          <mxGeometry x="-587" y="-111" width="59" height="59" as="geometry" />
        </mxCell>
        <mxCell id="eXeowy-1W0lOTfGpVI0h-35" value="" style="curved=1;endArrow=classic;html=1;rounded=0;fontSize=12;startSize=8;endSize=8;exitX=0.25;exitY=0;exitDx=0;exitDy=0;entryX=0;entryY=0.25;entryDx=0;entryDy=0;" edge="1" parent="1" source="eXeowy-1W0lOTfGpVI0h-6" target="eXeowy-1W0lOTfGpVI0h-34">
          <mxGeometry width="50" height="50" relative="1" as="geometry">
            <mxPoint x="-559" y="216" as="sourcePoint" />
            <mxPoint x="-509" y="166" as="targetPoint" />
            <Array as="points">
              <mxPoint x="-767" y="-125" />
              <mxPoint x="-654" y="-136" />
            </Array>
          </mxGeometry>
        </mxCell>
        <mxCell id="eXeowy-1W0lOTfGpVI0h-37" value="" style="curved=1;endArrow=classic;html=1;rounded=0;fontSize=12;startSize=8;endSize=8;entryX=1.041;entryY=0.137;entryDx=0;entryDy=0;entryPerimeter=0;" edge="1" parent="1" target="eXeowy-1W0lOTfGpVI0h-38">
          <mxGeometry width="50" height="50" relative="1" as="geometry">
            <mxPoint x="-173" y="96" as="sourcePoint" />
            <mxPoint x="-326" y="-104" as="targetPoint" />
            <Array as="points">
              <mxPoint x="-149" y="-57" />
              <mxPoint x="-162" y="-136" />
            </Array>
          </mxGeometry>
        </mxCell>
        <mxCell id="eXeowy-1W0lOTfGpVI0h-38" value="1" style="whiteSpace=wrap;html=1;aspect=fixed;fontSize=16;" vertex="1" parent="1">
          <mxGeometry x="-376.5" y="-111" width="59" height="59" as="geometry" />
        </mxCell>
        <mxCell id="eXeowy-1W0lOTfGpVI0h-39" value="N" style="whiteSpace=wrap;html=1;aspect=fixed;fontSize=16;" vertex="1" parent="1">
          <mxGeometry x="-365" y="496" width="59" height="59" as="geometry" />
        </mxCell>
        <mxCell id="eXeowy-1W0lOTfGpVI0h-40" value="N" style="whiteSpace=wrap;html=1;aspect=fixed;fontSize=16;" vertex="1" parent="1">
          <mxGeometry x="-575.5" y="496" width="59" height="59" as="geometry" />
        </mxCell>
        <mxCell id="eXeowy-1W0lOTfGpVI0h-41" value="" style="curved=1;endArrow=classic;html=1;rounded=0;fontSize=12;startSize=8;endSize=8;exitX=0.5;exitY=1;exitDx=0;exitDy=0;entryX=0;entryY=0.75;entryDx=0;entryDy=0;" edge="1" parent="1" source="eXeowy-1W0lOTfGpVI0h-20" target="eXeowy-1W0lOTfGpVI0h-40">
          <mxGeometry width="50" height="50" relative="1" as="geometry">
            <mxPoint x="-503" y="348" as="sourcePoint" />
            <mxPoint x="-453" y="298" as="targetPoint" />
            <Array as="points">
              <mxPoint x="-764" y="556" />
              <mxPoint x="-657" y="556" />
            </Array>
          </mxGeometry>
        </mxCell>
        <mxCell id="eXeowy-1W0lOTfGpVI0h-42" value="" style="curved=1;endArrow=classic;html=1;rounded=0;fontSize=12;startSize=8;endSize=8;exitX=0.5;exitY=1;exitDx=0;exitDy=0;entryX=1;entryY=0.5;entryDx=0;entryDy=0;" edge="1" parent="1" source="eXeowy-1W0lOTfGpVI0h-23" target="eXeowy-1W0lOTfGpVI0h-39">
          <mxGeometry width="50" height="50" relative="1" as="geometry">
            <mxPoint x="-364" y="363" as="sourcePoint" />
            <mxPoint x="-314" y="313" as="targetPoint" />
            <Array as="points">
              <mxPoint x="-132" y="504" />
              <mxPoint x="-136" y="585" />
            </Array>
          </mxGeometry>
        </mxCell>
      </root>
    </mxGraphModel>
  </diagram>
</mxfile>
